<ttFont>
          <CharString index="0">
            rmoveto
            -5 38 138 callgsubr
            -0.9900054931640625 8 -1 9 rlinecurve
            1 vlineto
            -12 87 -121 68.02000427246094 -149 62 -68 29 callsubr
            rlinecurve
            -135 -53 -69 -128.99000549316406 -11 -20 callsubr
            164 -46 rcurveline
            12 -128 -82 callgsubr
            -292 -194.99000549316406 vvcurveto
            -20 callsubr
            -54 callgsubr
            -163.99000549316406 -14 callsubr
            -74.02000427246094 vhcurveto
            -111 -72 callsubr
            170 callgsubr
            -55 -77 callsubr
            rrcurveto
            -11 113.00999450683594 -4 187.99000549316406 174 vvcurveto
            -68 callgsubr
            388.02000427246094 25 170.99000549316406 rlineto
            -1 -1 -0.9799957275390625 -0.9799957275390625 hhcurveto
            -80 callgsubr
            -86 callsubr
            -139 106 -134 84.99000549316406 -94 12 rlinecurve
            -140 -71 -83 callgsubr
            -132 -8.979995727539062 -120 139.97999572753906 -47 rcurveline
            155 callgsubr
            0 -35 -26.990005493164062 vvcurveto
            -202.02000427246094 40 -493 -82 callsubr
            -239 vhcurveto
            89 -17 callgsubr
            252 -78.99000549316406 149 -8.990005493164062 72 6.9900054931640625 -15 callsubr
            25 93 47 62.02000427246094 -77 callsubr
            101.99000549316406 42 16.020004272460938 58 124 callsubr
            135 50 516 218.99000549316406 vvcurveto
            89 -5 54 -6 132 callsubr
          </CharString>
          <CharString index="1">
            rmoveto
            86.02000427246094 -3.0200042724609375 83 callgsubr
            -7 74.02000427246094 vhcurveto
            11 -23 -68 callsubr
            6 -44 hhcurveto
            -122 -171.99000549316406 -50 -136.99000549316406 -55 hvcurveto
            155.02000427246094 -431 -63 callsubr
            -410.99000549316406 rlineto
            -53 90.00999450683594 -43 48.99000549316406 -35 vhcurveto
            -29 40 35 callsubr
            -21.990005493164062 125 callsubr
            108.02000427246094 150 344 173 67.99000549316406 hvcurveto
            15.020004272460938 140 callsubr
            139 callgsubr
            -78 42 callsubr
            rlinecurve
            -1 -10.020004272460938 -1 -8.990005493164062 -41 callgsubr
            vvcurveto
            304 callgsubr
            -66 callsubr
            77 -39.99000549316406 63 hhcurveto
            116 100 140 159 69 hvcurveto
            -85 121 -173 -92 rlineto
            hintmask 11010000
            94 222.99000549316406 -64 callsubr
            295 callsubr
            -83.99000549316406 -82 callsubr
            -122 hhcurveto
            -77 -70 31 callgsubr
            -75 callsubr
            267 callsubr
            -20.009994506835938 -75 -118 -255 78 callgsubr
            -30 14 rcurveline
            hintmask 10110000
            39.02000427246094 182 12 178 195.99000549316406 vvcurveto
            endchar
          </CharString>
          <CharString index="2">
            -72.99000549316406 -61.99000549316406 -170 -155.02000427246094 -49 2 137 callgsubr
            1 37 23 195.99000549316406 35 460 -18 193.99000549316406 rlinecurve
            24 22.020004272460938 100 -89 180 -74 91 -19 -11 callsubr
            -343 -31.009994506835938 rcurveline
            -62.02000427246094 32 -198.99000549316406 58 -61 -82 callgsubr
            -118.99000549316406 -62 callsubr
            -142 -125.00999450683594 -25.009994506835938 -94 rrcurveto
            -15 6 -66 4.0099945068359375 -34 vhcurveto
            -67 callgsubr
            -123 64 callgsubr
            -217.99000549316406 -67 callgsubr
            -217 11 -161 8 -157 5 -102.99000549316406 5 28 callsubr
            16 -28 46 -36 33 -25 46 -33 47 -25 rrcurveto
            -18.979995727539062 27 29 -13 31 hhcurveto
            128 129 242.99000549316406 124 183 callgsubr
            24 -11 -83 callsubr
            -119 -16.020004272460938 -82 -6 -87 rlinecurve
            50 -32 callsubr
            87 -17 83 -1 rrcurveto
            55.99000549316406 63 21.990005493164062 45 callgsubr
            30 hvcurveto
            -64 476 rlineto
            return
          </CharString>
          <CharString index="3">
            rmoveto
            -86 callsubr
            6 1 5 5 vvcurveto
            84.00999450683594 -71 -83.99000549316406 -82 callsubr
            -122 hhcurveto
            -77 -70 31 callgsubr
            -75 callsubr
            5 callsubr
            5 -97.02000427246094 24 -286 vhcurveto
            -20.009994506835938 -75 -118 -229.99000549316406 78 callgsubr
            -30 14 rcurveline
            62 callsubr
            12 95.00999450683594 7 122 rrcurveto
            hintmask 10101100
            9 159.99000549316406 0 166 -13 135 -31 callgsubr
            41 -290 -25 -74.02000427246094 -186 155.02000427246094 -431 rcurveline
            -63 callsubr
            -410.99000549316406 rlineto
            -53 90.00999450683594 -43 48.99000549316406 -35 vhcurveto
            39.02000427246094 -28 65 callgsubr
            115 callsubr
            17.979995727539062 226 callsubr
            -62 callgsubr
            15.990005493164062 -57 callsubr
            82 161 307 -66 callsubr
            141 29 callgsubr
            -3 rcurveline
            -2 -188 22 -303.97999572753906 -8.990005493164062 -194 rrcurveto
            -93 -205 26 22 -98 hvcurveto
            124 callgsubr
            282 callsubr
            44 -58 181.99000549316406 -101.00999450683594 -42 callsubr
            14 hvcurveto
            176 59.99000549316406 156 147 43 166 -138.02000427246094 792.9799957275391 rcurveline
            hintmask 01110100
            -37 callgsubr
            175 -14 callgsubr
            71 15.009994506835938 48 callsubr
            -5 -4 rcurveline
            endchar
          </CharString>
          <CharString index="4">
            -65 callsubr
            hintmask 10101100
            -60 -4 callsubr
            -69 -43 callgsubr
            41 callgsubr
            -5.0200042724609375 -201.99000549316406 -68 callsubr
            -124.00999450683594 197 callsubr
            -7 -14 -16 vvcurveto
            -13 -80 callgsubr
            -15 -70 callgsubr
            -26.990005493164062 vhcurveto
            46 -157 20 -260.02000427246094 -157.97999572753906 -54 -6 179 callgsubr
            -28 vvcurveto
            -53 81.99000549316406 -28 49 -35 vhcurveto
            39 -22 callsubr
            20 15.990005493164062 -1 callgsubr
            82 112 223.99000549316406 78.99000549316406 226 13 -9 rcurveline
            -2 -188 25 -299 -8.990005493164062 -194.99000549316406 rrcurveto
            -93 -205 26 22 -98 hvcurveto
            124 callgsubr
            282 callsubr
            44 -58 181.99000549316406 -101.00999450683594 -42 callsubr
            14 hvcurveto
            176 59.99000549316406 156 147 43 166 -132.02000427246094 757.9799957275391 rcurveline
            hintmask 01110100
            115.02000427246094 200.99000549316406 10 86.02000427246094 16 76.99000549316406 rrcurveto
            -1 hlineto
            hintmask 01101100
            -657 -721 rmoveto
            -30 -72 callsubr
            22 callgsubr
            107 vlineto
            64 -15.009994506835938 66 -11 80 -20 rrcurveto
            -83.99000549316406 1 43.99000549316406 -3 -40 vhcurveto
            67 callsubr
            -73.02000427246094 rrcurveto
            endchar
          </CharString>
          <CharString index="5">
            rmoveto
            -250 76 -253.99000549316406 63 -266 43.99000549316406 -83 -75 -42 -155 -76 callgsubr
            -102.99000549316406 53 -20.009994506835938 83.99000549316406 -16 93 -13 rrcurveto
            hintmask 01110000
            -174 -875.0099945068359 -131.99000549316406 11 -19 callsubr
            -163 38 -99 110 -58.97999572753906 112 -2 rlinecurve
            222.99000549316406 -4 30 236.99000549316406 43 callgsubr
            225 84.99000549316406 -7 101.00999450683594 -6.9900054931640625 67.99000549316406 -48 callsubr
            rrcurveto
            54 hlineto
            60 callgsubr
            -87 -81 -272 48 -51 98 -30.979995727539062 -4 callsubr
            152 callsubr
            70.99000549316406 1 73.00999450683594 16.020004272460938 60 169 callgsubr
            hintmask 10110000
            5.9799957275390625 101.99000549316406 2 94 -228 1136 rrcurveto
            -455.99000549316406 -733 rmoveto
            23 206.99000549316406 15 210 5 88 30 -2 29 -76 callgsubr
            -18 callgsubr
            -2 104 -476 rcurveline
            -47 callsubr
            -7 -84.99000549316406 -7.9900054931640625 -70 -7 rrcurveto
            endchar
          </CharString>
          <CharString index="6">
            rmoveto
            -144 -18 -194 -97 -65 -154.99000549316406 50 -110.02000427246094 86 -61 callsubr
            -58 callgsubr
            -59 -99 -683 rcurveline
            -17 hlineto
            -17 286 -147.99000549316406 411.02000427246094 -11.020004272460938 94 callgsubr
            rrcurveto
            0 0 1 1 1 vhcurveto
            -5 154 -59 179 -84.99000549316406 77 -144 -18 -167.02000427246094 -88 -93.97999572753906 -155 49.99000549316406 118 callsubr
            -57 168 callsubr
            -159 -687 rcurveline
            -7 hlineto
            -17 291 -118.99000549316406 759.0099945068359 -27.020004272460938 57 rrcurveto
            -0.9799957275390625 hlineto
            -43 51 -60 45 callgsubr
            -41 callsubr
            -2 -125.00999450683594 -76 callgsubr
            -148.99000549316406 -117 -24 callsubr
            -103.02000427246094 172.99000549316406 -229.99000549316406 rcurveline
            -80 callgsubr
            -11 207 -795.0200042724609 -44 callsubr
            -61 callsubr
            -25 58 callgsubr
            -10 -31 callgsubr
            rlinecurve
            101.00999450683594 -97.99000549316406 349 -8 123 101.99000549316406 -15.009994506835938 88 -36 callgsubr
            59 -23 49 129.99000549316406 518 rcurveline
            142 -492.02000427246094 43 callsubr
            -57 -27 -68 -10 -93 rlinecurve
            -6 callsubr
            -97.99000549316406 349 -8 123 101.99000549316406 -51 callsubr
            86.02000427246094 -20.009994506835938 59 -22 47.99000549316406 303 896 rcurveline
            -6 152 -59 143 116 callsubr
            rrcurveto
            endchar
          </CharString>
          <CharString index="7">
            8 -879 99 callgsubr
            -31 -163 rlineto
            -99 47 112.99000549316406 -62.99000549316406 184 callsubr
            153 59 97.99000549316406 52 callgsubr
            14.990005493164062 -1 15 -1 15.009994506835938 hvcurveto
            -27 258.99000549316406 -148 562.0099945068359 -30 99 5 -86 callsubr
            rcurveline
            437 -925 rlineto
            -18 -83 callgsubr
            -7.9900054931640625 -66.00999450683594 -9 callgsubr
            vvcurveto
            -18 1 -15.009994506835938 -86 callsubr
            -11 vhcurveto
            -47 59 130 -22.979995727539062 -46 callgsubr
            hhcurveto
            119 104 44.970001220703125 -56 callsubr
            43.99000549316406 hvcurveto
            -17 90 callgsubr
            217 callgsubr
            -53 65 86 1137.990005493164 rcurveline
            28 -41 -74 15.020004272460938 -53 hhcurveto
            -106 -112.99000549316406 -46 -53 -25 hvcurveto
            -150 111 -647 41 -238 vhcurveto
            return
          </CharString>
          <CharString index="8">
            rmoveto
            -64 -1 -192 -34 -8.990005493164062 -225.02000427246094 119.99000549316406 -138 rcurveline
            141 callsubr
            -510 149 -116 -10 -82 -29 -80 -86 callsubr
            -115.02000427246094 rlinecurve
            -154.99000549316406 2 156 -93 141 hhcurveto
            130.99000549316406 189 137.99000549316406 118 51 hvcurveto
            -75 146 -65 -27.020004272460938 -126 -40 -55 -7.9900054931640625 rlinecurve
            -37 callsubr
            191 135.99000549316406 76 146 164.99000549316406 137 287.00999450683594 -55 callsubr
            139 rlinecurve
            -6 152 -32 callsubr
            142 116 callsubr
            -144.02000427246094 -18 -180 -68 -65 -154.99000549316406 50.02000427246094 118 callsubr
            -61 168 callsubr
            -153 -437.99000549316406 rcurveline
            -45 hlineto
            -133 839.9900054931641 -53 37 -62 13 -72 -1 rlinecurve
            endchar
          </CharString>
          <CharString index="9">
            151 callsubr
            -115 hhcurveto
            178 callsubr
            -100 -79.02000427246094 -159.99000549316406 -136 51 callsubr
            -162 58.97999572753906 87 callgsubr
            -185 -406 -62.02000427246094 53 -41 93 callgsubr
            -41.99000549316406 12 rlinecurve
            -42 -83 callsubr
            -75 -38 -34.02000427246094 -62 callsubr
            rrcurveto
            -137.02000427246094 67.02000427246094 -234 86 -51.970001220703125 vhcurveto
            98 218 callgsubr
            56.99000549316406 62.02000427246094 216 callgsubr
            hintmask 10110000
            -70 67.99000549316406 168 -100 124 hhcurveto
            70 64 31.990005493164062 68.00999450683594 51 16 callsubr
            -184 57 callgsubr
            339.99000549316406 436 rlineto
            -54 callgsubr
            -62 callgsubr
            14.990005493164062 -3.0200042724609375 -72 callsubr
            hhcurveto
            60 callgsubr
            17.020004272460938 5 259 callsubr
            30 callgsubr
            hintmask 01110000
            -101 -4 -3 callsubr
            -94 -38 -57 rrcurveto
            endchar
          </CharString>
          <CharString index="10">
            rmoveto
            39 -113.99000549316406 64 callgsubr
            -251 -185 vvcurveto
            -104 -38.02000427246094 -16.020004272460938 84.00999450683594 -71.99000549316406 vhcurveto
            -7 callsubr
            27 144 -124.99000549316406 88 hhcurveto
            157 244 223.99000549316406 86.02000427246094 47 hvcurveto
            106 callgsubr
            -112 -61 callgsubr
            -158 -79.02000427246094 -48 -36 callgsubr
            rlinecurve
            -43 callsubr
            16 -82 callsubr
            175 5 269.99000549316406 -16 144.02000427246094 rlinecurve
            62 -63 callsubr
            70 -112 -34 callgsubr
            -61 callgsubr
            51 14.990005493164062 165 180 -35 230.99000549316406 -186 48 rcurveline
            23 160 callsubr
            66 callgsubr
            74.02000427246094 -60 hhcurveto
            -63 -122 -61 -31 -52 hvcurveto
            -52 -37 callsubr
            -127 -94 -57 vvcurveto
            -13 7 -20.009994506835938 -82 callgsubr
            -28 vhcurveto
            endchar
          </CharString>
          <CharString index="11">
            rmoveto
            24 22.020004272460938 100 -89 -46 callgsubr
            -55 91 -83 callgsubr
            -11 callsubr
            -315.97999572753906 -22 rcurveline
            -62 -77 callsubr
            73 callsubr
            46 -61 12 -118.99000549316406 -62 callsubr
            -142 -125.00999450683594 -25.009994506835938 -94 rrcurveto
            -15 0 -66 6 -34 vhcurveto
            22 -116 17.020004272460938 -225 -67 callgsubr
            -217 11 -161 8 -157 5 -102.99000549316406 5 28 callsubr
            16 -28 46 -36 rrcurveto
            -46 59 -34 callgsubr
            -68.99000549316406 71 hhcurveto
            235.99000549316406 -50 callgsubr
            204 182 67.99000549316406 117 -75 167 rcurveline
            -196 -72.99000549316406 -152 58 callgsubr
            -80 -11.979995727539062 23 195.99000549316406 35 460 -18 193.99000549316406 rrcurveto
            endchar
          </CharString>
          <CharString index="12">
            -16 callgsubr
            hintmask 10011110
            -13 callgsubr
            rrcurveto
            hintmask 01011110
            -88 121 rlineto
            hintmask 01101110
            742.0099945068359 651 151 callsubr
            -115.02000427246094 hhcurveto
            -118.99000549316406 -100 -79.02000427246094 -159.99000549316406 -136 80 -162 59 -62 hvcurveto
            166.02000427246094 244 callgsubr
            -62 315 callsubr
            -41.97999572753906 -83 callsubr
            -75.02000427246094 -38 -34 -62 callsubr
            rrcurveto
            -137.02000427246094 67.02000427246094 -234 86 -51.970001220703125 vhcurveto
            98 218 callgsubr
            56.99000549316406 61.99000549316406 216 callgsubr
            hintmask 10101110
            -70 68.02000427246094 126 callsubr
            82 -13 78.00999450683594 -17 45 vhcurveto
            -147.99000549316406 28 -100 -234 -184.02000427246094 57 callgsubr
            340.00999450683594 436 rlineto
            -54 callgsubr
            -40 callsubr
            15.009994506835938 -3.0200042724609375 -67 callgsubr
            hhcurveto
            19 17 5 13 20.009994506835938 30 callgsubr
            hintmask 01101110
            -101 -4 -66.00999450683594 -94 -83 callgsubr
            -57 rrcurveto
            hintmask 01011110
            -1400.009994506836 -712.0099945068359 -77 callgsubr
          </CharString>
          <CharString index="13">
            -49 -143 -83 callgsubr
            -255 -10 -196 rrcurveto
            -50 53 86 293 callgsubr
            53 296 callgsubr
            -11.020004272460938 189 return
          </CharString>
          <CharString index="14">
            33 -46 64.97999572753906 -82 -43 callgsubr
            -22 115.02000427246094 50 callsubr
            -19 8 callsubr
            82.97999572753906 3 32.02000427246094 47 58 222 -64 98 -260.00999450683594 -77 rcurveline
            return
          </CharString>
          <CharString index="15">
            -21 callgsubr
            -94 callsubr
            return
          </CharString>
          <CharString index="16">
            4 -225.02000427246094 1 -53 82 -28 49.99000549316406 -35 39.02000427246094 -28 -3 callgsubr
            115 callsubr
            18 226 callsubr
            19 15.990005493164062 -1 callgsubr
            82 28 callgsubr
            268.97999572753906 53 141 5 -2 rcurveline
            -6 -92 -5 -81 -8 -53 callsubr
            -7.9900054931640625 -89 35 -25 143 callsubr
            -27 56 -59 78.99000549316406 -41.97999572753906 62 -68 callgsubr
            116 2 return
          </CharString>
          <CharString index="17">
            87 291 -23 callgsubr
            863.9900054931641 -8.990005493164062 61 rlinecurve
            -15 callsubr
            -71 -103 23 -92 hhcurveto
            -96.00999450683594 -83.99000549316406 -4 callgsubr
            -28 -23 hvcurveto
            -80 callgsubr
            -40.02000427246094 58 -411 17 -198 -5 -2 rcurveline
            -61.99000549316406 -4 callsubr
            -71 -43 callgsubr
            158 callsubr
            74.02000427246094 -39 -5.0200042724609375 -200.99000549316406 -68 callsubr
            229 callgsubr
            197 callsubr
            -6 -14 -16 vvcurveto
            -13 4 -15 -70 callgsubr
            -26.990005493164062 vhcurveto
            return
          </CharString>
          <CharString index="18">
            rmoveto
            177.99000549316406 159.99000549316406 251 297 16.020004272460938 29 rrcurveto
            -67 callgsubr
            28 7 45.02000427246094 46 vvcurveto
            127 -24 14.990005493164062 -18 7 vhcurveto
            -63 23 -46 -72 callsubr
            -66 35 rrcurveto
            41 -76 -84.99000549316406 72.99000549316406 -54 hhcurveto
            -72.99000549316406 -123 -60 -35 -61 hvcurveto
            -109 -63 -7 -99 -17 -61 callgsubr
            -52 86 -98 150 -85 60 -24 callgsubr
            -5 -203 -37 -123 -157 rrcurveto
            -36 callgsubr
            -25.009994506835938 -6 127 callgsubr
            -54 -6 -91 -28.020004272460938 vvcurveto
            -52.99000549316406 81.99000549316406 -28.020004272460938 49 -35 vhcurveto
            -29 40 35 callsubr
            -75 callsubr
            125 callsubr
            109 188 callgsubr
            344 171.99000549316406 -58 callgsubr
            hvcurveto
            15.009994506835938 -54 callgsubr
            11 -47 callsubr
            -41 callgsubr
            -103 -6 -63 callsubr
            rlinecurve
            -76 callgsubr
            -35.97999572753906 -67 callgsubr
            -27.020004272460938 -37 callgsubr
            -82 rrcurveto
            -58.99000549316406 69 41 -43 45 hhcurveto
            178 207 callgsubr
            212 -17 callsubr
            80 hvcurveto
            -84.99000549316406 139 -129 -62 -129 -79.00999450683594 -68 312 callgsubr
            509.99000549316406 rmoveto
            -58 -136 228 callsubr
            -173 -46 253 callgsubr
            274 55.99000549316406 vvcurveto
            203 callgsubr
            -29 68.02000427246094 -36 callgsubr
            35 -14 callsubr
            rrcurveto
            -777.0099945068359 -456 rmoveto
            -30 14 22 callgsubr
            -56 callsubr
            vlineto
            69 -7 61 -19 305 callsubr
            -53 vlineto
            -41 callgsubr
            0 6 -2 -24 vhcurveto
            67 callsubr
            153 callgsubr
            endchar
          </CharString>
          <CharString index="19">
            -216 -177.99000549316406 -51 callgsubr
            529 76.99000549316406 -80 callgsubr
            95 6 61 5.0200042724609375 rlinecurve
            -33 callsubr
            57 59 132 -81 138 -222 -45 rcurveline
            11 281 53 callsubr
            52 -160 -6 -47 -25 rlinecurve
            -41 callsubr
            -362.99000549316406 -112 23 callsubr
            178 callgsubr
            -62 callgsubr
            100 callgsubr
            rlinecurve
            -57 callsubr
            -6 50.02000427246094 -358.02000427246094 rlineto
            49 callsubr
            -182.99000549316406 -7.9900054931640625 -48 -25.009994506835938 vvcurveto
            return
          </CharString>
          <CharString index="20">
            rmoveto
            -10 callsubr
            108 -155 101 -114 54 -712 59.99000549316406 rcurveline
            -103 -71 -23 -132 -41 callgsubr
            -120 183 -16 rcurveline
            72 callgsubr
            rrcurveto
            -84 callsubr
            -386.99000549316406 -640 rmoveto
            -85.00999450683594 -3 -107.99000549316406 -4 -81 vhcurveto
            -271.00999450683594 82 -17 218 callgsubr
            783.0200042724609 242 -51.02000427246094 rlineto
            12 -127 5.0200042724609375 -220 -196 vvcurveto
            endchar
          </CharString>
          <CharString index="21">
            1.9900054931640625 return
          </CharString>
          <CharString index="22">
            rmoveto
            -180 15 -82 -190 -287 -62 callgsubr
            14 344.99000549316406 rlineto
            -61 callgsubr
            -17 callsubr
            138 -23 129 hhcurveto
            -62 callgsubr
            -40 callsubr
            -68 callgsubr
            2 141 callgsubr
            23 25 28 83 86 vvcurveto
            54 123 callsubr
            -29 44 vhcurveto
            -150 -31 -93 -25.009994506835938 -210 -23 -17 323.02000427246094 rcurveline
            179 -51.02000427246094 148 -34 251 callsubr
            -83 callsubr
            rrcurveto
            66 49.99000549316406 41 100 186 callsubr
            -368.99000549316406 -94 -344 74.02000427246094 -38 -27.020004272460938 -83 callgsubr
            -39 -29 -43 rlinecurve
            -464 129 -83 -75 -42 -164.99000549316406 -76 callgsubr
            -103.00999450683594 rlinecurve
            48.99000549316406 129 callgsubr
            85.02000427246094 -16 93.97999572753906 -13 rrcurveto
            hintmask 01011000
            -171.99000549316406 -866 -131.99000549316406 11 -19 callsubr
            -163 38 -99 110 -58.97999572753906 112 -2 rlinecurve
            222.99000549316406 -4 30 236.99000549316406 43 callgsubr
            225 84.99000549316406 -7 101.00999450683594 -6.9900054931640625 67.99000549316406 -48 callsubr
            rrcurveto
            11 hlineto
            -24 callsubr
            -228.99000549316406 15 -42 20 -42 39 -39 rlinecurve
            -46 136.99000549316406 308 -42 146 hhcurveto
            164 87 103.99000549316406 154 hvcurveto
            hintmask 00111000
            57 callsubr
            -17 91.02000427246094 -75 callsubr
            55.99000549316406 vhcurveto
            hintmask 10011000
            -1071 159 rmoveto
            22 200.99000549316406 14.990005493164062 203 5 93 35 -76 callgsubr
            34.02000427246094 -2 29.990005493164062 -76 callgsubr
            -34 callgsubr
            -466 rcurveline
            -81 -7 -89 -14 callsubr
            -72.99000549316406 -7.9900054931640625 rrcurveto
            endchar
          </CharString>
          <CharString index="23">
            -90 callgsubr
            137 -5 -77 callsubr
            -7 61 vhcurveto
            return
          </CharString>
          <CharString index="24">
            -13.990005493164062 return
          </CharString>
          <CharString index="25">
            36.99000549316406 return
          </CharString>
          <CharString index="26">
            rmoveto
            -186 -26.990005493164062 94 callgsubr
            338 18 455.99000549316406 -70 callgsubr
            198 rlinecurve
            -87 93 -302 142 -106 14.990005493164062 -135 -53 -69 -128.99000549316406 -11 -20 callsubr
            209 callgsubr
            -15 35 -15.990005493164062 -58 callsubr
            -16.020004272460938 -18 -46 callsubr
            -35 -185 -35 callsubr
            -148 -44 callsubr
            -220 rcurveline
            -8 -1 -171.99000549316406 790 -139 106 -293 84.99000549316406 -94 12 rlinecurve
            -140 -71 -83 callgsubr
            -132 -9 -120 168.99000549316406 -51 rcurveline
            hintmask 01011000
            -69 -870.0099945068359 rlineto
            -8.990005493164062 vlineto
            99 callgsubr
            -45 -163 38 -99 92 callgsubr
            -41 callsubr
            112 -2 rlinecurve
            4 5 0 -8 callsubr
            hhcurveto
            6 hlineto
            174.99000549316406 58 123 145 -51 callgsubr
            hvcurveto
            -5 258.99000549316406 -79.02000427246094 562.0099945068359 -75 callsubr
            99 19 7 rcurveline
            289 -889.0200042724609 rlineto
            hintmask 00111000
            -34 -32 callsubr
            -7 -133 -41 vvcurveto
            -50 60 103 -37 callsubr
            100 hhcurveto
            74 72.00999450683594 16.020004272460938 37.970001220703125 52 hvcurveto
            -18 102.02000427246094 -13 94 -43 92 194 851 rcurveline
            19 -3.0200042724609375 -5 -152 1 -290 11.979995727539062 -234.99000549316406 rlinecurve
            hintmask 10011000
            6 -128 7 -129 -70 callgsubr
            -63 rrcurveto
            -129 16 106 -65 117 hhcurveto
            170.99000549316406 62 155.99000549316406 32 21 hvcurveto
            hintmask 00111000
            -74 callsubr
            110 callgsubr
            rlineto
            endchar
          </CharString>
          <CharString index="27">
            rmoveto
            83.99000549316406 -69 -84.99000549316406 38 -123 hhcurveto
            -77 130 callgsubr
            -15.009994506835938 -12 -23 hvcurveto
            -68 callsubr
            6.9900054931640625 -123 54 -158 vhcurveto
            return
          </CharString>
          <CharString index="28">
            -4 -87 callgsubr
            368.0299835205078 -15 callgsubr
            -2 1116.990005493164 vstem
            278 callsubr
            259.99000549316406 rmoveto
            -11 5 47 338 57 612 -15 350.99000549316406 235 callsubr
            35 -55 13 -59 -1 -123 -1 73 callsubr
            203 callsubr
            -65 -81 50.99000549316406 -318.00999450683594 39 -205.99000549316406 86.02000427246094 -280 -46 -154 -34.02000427246094 -209 -6 -194 46 -61 callgsubr
            264 callgsubr
            -59 -23 callgsubr
            -6 -4 callsubr
            68.99000549316406 57 callsubr
            99 95.00999450683594 -34 callgsubr
            -77 callsubr
            -112 55 -112 94 -28.979995727539062 rrcurveto
            -11.020004272460938 35 34 -6 -77 callsubr
            hhcurveto
            88 -0.9900054931640625 75 41.97999572753906 44 297 callsubr
            93 callgsubr
            71 -70 callgsubr
            54 105 vvcurveto
            -118 91 -39 -42 -39 -37 callsubr
            -40.02000427246094 -20 rlinecurve
            -74 callsubr
            32 -49 -55 callsubr
            -36 callgsubr
            29 121 139.02000427246094 95 144 -82 callsubr
            64 1 135 -81 175.99000549316406 -46 callsubr
            86.02000427246094 -129 -5.0200042724609375 -173.02000427246094 -103 -63 171 callgsubr
            38.02000427246094 -89 52 -66.00999450683594 -73 callgsubr
            -32 callsubr
            -69 -166 -83 -179 -93 -155 rrcurveto
            return
          </CharString>
          <CharString index="29">
            rmoveto
            -4 callgsubr
            32.02000427246094 -89 22 -87 14 13 58 rcurveline
            47 217 41 261 4 188.99000549316406 rrcurveto
            -34 callgsubr
            -121 -161.02000427246094 238 callgsubr
            -76 hhcurveto
            -58 -51 -11.979995727539062 -5.0200042724609375 -75 callsubr
            hvcurveto
            -227 -561.9900054931641 -29 14 -1 callgsubr
            496.99000549316406 rlineto
            34 -50 -58 15.020004272460938 -57 hhcurveto
            -108.99000549316406 -108.02000427246094 -55 -81 -60 hvcurveto
            -0.9900054931640625 -2 0 -4 -6 vvcurveto
            -112.99000549316406 79 -792 53 -106 vhcurveto
            -28 -92 -12 -41 -20.009994506835938 -74.02000427246094 rrcurveto
            -5 -17 -2 -12.990005493164062 -10.020004272460938 vvcurveto
            -31 callgsubr
            449 -56.99000549316406 226 37 36 2 4 36 vhcurveto
            209 238 callsubr
            144 217 221 vvcurveto
            38 -4 -58 callsubr
            -41 callgsubr
            109 callgsubr
            -536 540.0200042724609 rmoveto
            47 -14 callsubr
            -1 -78 -10 -186.99000549316406 -10 -141 rlinecurve
            -66 -80 callgsubr
            -87 -8 callsubr
            -65 -86 callsubr
            55 68 callgsubr
            92 194.99000549316406 45 91.02000427246094 rrcurveto
            126.02000427246094 -929.0200042724609 rmoveto
            -127.02000427246094 -70 callgsubr
            -157 47 -116.99000549316406 -58 callgsubr
            6 77 10 76 13 76 401 -83 rcurveline
            -86 callsubr
            -24 1 -36 callgsubr
            -19 vvcurveto
            -64 -13 -46 -43 callsubr
            -95 vhcurveto
            endchar
          </CharString>
          <CharString index="30">
            31.990005493164062 return
          </CharString>
          <CharString index="31">
            -149 106 -211 46 -95 12 rlinecurve
            -134.99000549316406 -71.99000549316406 -24 -131 -120 vvcurveto
            49.99000549316406 -32 66 -51 callsubr
            57 -4 rrcurveto
            return
          </CharString>
          <CharString index="32">
            -20.990005493164062 return
          </CharString>
          <CharString index="33">
            -31.990005493164062 return
          </CharString>
          <CharString index="34">
            287 vstem
            278 callgsubr
            -112 rmoveto
            1148.990005493164 1524 46 callgsubr
            rlinecurve
            -1066 -1541.020004272461 -67 callgsubr
            -48 callgsubr
            72 -58 77 -22 rlinecurve
            -40 1660.990005493164 rmoveto
            -274 -117 -186 -243 -4 hvcurveto
            -241 101.99000549316406 -186 278 273 52 callgsubr
            197.02000427246094 244 237 -97 177.99000549316406 -286 vhcurveto
            -98 -252.99000549316406 rmoveto
            50 24 119 -42 rlineto
            16 -65 -82 callgsubr
            -41 callsubr
            -71 vvcurveto
            -62.02000427246094 -7 -52 -11.979995727539062 149 callgsubr
            vhcurveto
            -19 callsubr
            -32 -53 12 -18 callsubr
            16.020004272460938 -32.02000427246094 22 rlinecurve
            -51 callsubr
            64 -10 65 72.99000549316406 vvcurveto
            61 6.9900054931640625 49.99000549316406 16.020004272460938 54 vhcurveto
            1210 -461 rmoveto
            -274 -117 -186 -243 -54 callgsubr
            hvcurveto
            -241 101.99000549316406 -185.97999572753906 278 273 52 callgsubr
            196.97000122070312 244 237.02000427246094 208 callsubr
            178 -285.97999572753906 vhcurveto
            return
          </CharString>
          <CharString index="35">
            14.009994506835938 return
          </CharString>
          <CharString index="36">
            rmoveto
            -58 -0.9900054931640625 -37 callsubr
            -10.020004272460938 81 callsubr
            -6 -222 -647.9900054931641 rcurveline
            -10 4 44.02000427246094 356 57 353 18 336 rlinecurve
            34.02000427246094 -42 -53 252 callgsubr
            -57 hhcurveto
            -121 -135 -65 -81.99000549316406 -67.02000427246094 hvcurveto
            -9.990005493164062 -24 callgsubr
            90.00999450683594 -937 -66 callsubr
            66 callgsubr
            rrcurveto
            309 callsubr
            2 hlineto
            -23 101 callgsubr
            -11 -41 -17 -73.02000427246094 -28 callgsubr
            -58 12 -9 36 -19 134 -71.99000549316406 234.99000549316406 -26.990005493164062 140 -86 callsubr
            51 callsubr
            1 114 29 callgsubr
            65 callgsubr
            -77 callsubr
            84.00999450683594 234.99000549316406 98 252 callsubr
            7 311.99000549316406 -20 callsubr
            -34 callgsubr
            -162 -23 callgsubr
            -76 -1 rrcurveto
            hintmask 01111000
            -75 -966.9900054931641 rmoveto
            -46 -80 callgsubr
            -113.99000549316406 35 -54 47 -77 callsubr
            76 138.02000427246094 291 58 118 27 -8 rcurveline
            -2 -126 -23 -285 -16 -151 rrcurveto
            endchar
          </CharString>
          <CharString index="37">
            -73.00999450683594 return
          </CharString>
          <CharString index="38">
            221 callgsubr
            hstemhm
            6.9799957275390625 1156.990005493164 hintmask 10110000
            return
          </CharString>
          <CharString index="39">
            -36.99000549316406 return
          </CharString>
          <CharString index="40">
            rmoveto
            -250 76 -253.99000549316406 63 -266 43.99000549316406 -83 -75 -42 -155 -76 callgsubr
            -102.99000549316406 53 -20.009994506835938 83.99000549316406 -16 93 -13 rrcurveto
            hintmask 01111000
            -174 -875.0099945068359 -131.99000549316406 11 -19 callsubr
            -163 38 -99 110 -58.97999572753906 112 -2 rlinecurve
            222.99000549316406 -4 30 236.99000549316406 43 callgsubr
            225 84.99000549316406 -7 101.00999450683594 -6.9900054931640625 67.99000549316406 -48 callsubr
            rrcurveto
            54 hlineto
            60 callgsubr
            -87 -81 -272 48 -51 98 -30.979995727539062 -4 callsubr
            152 callsubr
            70.99000549316406 1 73.00999450683594 16.020004272460938 60 169 callgsubr
            hintmask 10111000
            5.9799957275390625 101.99000549316406 2 94 -228 1136 rrcurveto
            -455.99000549316406 -733 rmoveto
            23 206.99000549316406 15 210 5 88 30 -2 29 -76 callgsubr
            -18 callgsubr
            -2 104 -476 rcurveline
            -47 callsubr
            -7 -84.99000549316406 -7.9900054931640625 -70 -7 rrcurveto
            endchar
          </CharString>
          <CharString index="41">
            54.99000549316406 return
          </CharString>
          <CharString index="42">
            rmoveto
            1 1 rlineto
            84.00999450683594 -71 -83.99000549316406 -82 callsubr
            -122 hhcurveto
            -77 -70 31 callgsubr
            8 callgsubr
            -118 vhcurveto
            return
          </CharString>
          <CharString index="43">
            77.99000549316406 return
          </CharString>
          <CharString index="44">
            -84.00999450683594 return
          </CharString>
          <CharString index="45">
            -43.99000549316406 return
          </CharString>
          <CharString index="46">
            -54.99000549316406 return
          </CharString>
          <CharString index="47">
            67.99000549316406 -94 173 -167 98 -89 -99 -100 -169 -208 -36 -104 17.020004272460938 -67.02000427246094 -57 callsubr
            -78.99000549316406 55 -23 436 425 rcurveline
            14.990005493164062 86 -30 206 -41 46.99000549316406 -92 131 callsubr
            -241.99000549316406 187 34 callsubr
            57 callsubr
            100 callgsubr
            -74 callsubr
            -71 -67.02000427246094 -32.99000549316406 -48 callgsubr
            rrcurveto
            return
          </CharString>
          <CharString index="48">
            rmoveto
            -78.99000549316406 353.00999450683594 153.99000549316406 -44 162 -40 152 -22 rlinecurve
            68.00999450683594 46 35 -17 callsubr
            -34 callgsubr
            vvcurveto
            95 -30 91 -64 93 callgsubr
            vhcurveto
            -354 -19 callgsubr
            -449 94 rlineto
            -63 -64 -43 -120.02000427246094 -82 vvcurveto
            -7.9900054931640625 0 -7 1 -7 vhcurveto
            308 -942 rlineto
            -233 hlineto
            -65 -136.99000549316406 rlineto
            -76 39 130 callsubr
            -118 34 callgsubr
            hhcurveto
            120 188 84.99000549316406 129 11 hvcurveto
            -72 callsubr
            154 -44 140 -24 callsubr
            139 5 5 rcurveline
            -54 95 92 callgsubr
            -31.009994506835938 105 hhcurveto
            209 callgsubr
            143 callsubr
            1 -8 callsubr
            24 hvcurveto
            23 143 callsubr
            250 callsubr
            83 86 vvcurveto
            54 -12 60 -29 43.99000549316406 vhcurveto
            -142 -29 -86 -36 callgsubr
            -182 43 callsubr
            rrcurveto
            endchar
          </CharString>
          <CharString index="49">
            37.99000549316406 return
          </CharString>
          <CharString index="50">
            95.99000549316406 return
          </CharString>
          <CharString index="51">
            107.00999450683594 return
          </CharString>
          <CharString index="52">
            53.99000549316406 return
          </CharString>
          <CharString index="53">
            -68.00999450683594 94 -173 167 -98 89 99 100 169 208 36 104 -17.020004272460938 -33 callgsubr
            -10 callsubr
            79 -55 23 -436 -425 rcurveline
            -51 callsubr
            -86 30 -206 41 -46.99000549316406 92 49 callsubr
            241.99000549316406 -187 91.02000427246094 -31 callgsubr
            -55 callsubr
            -77 callsubr
            71 -33 callgsubr
            33 -58 callgsubr
            rrcurveto
            return
          </CharString>
          <CharString index="54">
            -100.99000549316406 return
          </CharString>
          <CharString index="55">
            26.990005493164062 return
          </CharString>
          <CharString index="56">
            -14.990005493164062 return
          </CharString>
          <CharString index="57">
            -6 callgsubr
            -273 112 -650 -58 callsubr
            -395.97999572753906 -203 -25 callsubr
            rcurveline
            -21 -61 callgsubr
            -15.009994506835938 -40.02000427246094 2 -76 33 -46 65 -82 119 -22 115 50 callsubr
            129 callgsubr
            0 callsubr
            return
          </CharString>
          <CharString index="58">
            -92 callgsubr
            hstemhm
            return
          </CharString>
          <CharString index="59">
            -4.0200042724609375 return
          </CharString>
          <CharString index="60">
            -78.00999450683594 return
          </CharString>
          <CharString index="61">
            -89.99000549316406 return
          </CharString>
          <CharString index="62">
            -32.99000549316406 66.99000549316406 -7 callgsubr
            return
          </CharString>
          <CharString index="63">
            -26.009994506835938 return
          </CharString>
          <CharString index="64">
            -18.990005493164062 return
          </CharString>
          <CharString index="65">
            150 -1 rrcurveto
            15.009994506835938 108 callsubr
            2 return
          </CharString>
          <CharString index="66">
            -60.99000549316406 return
          </CharString>
          <CharString index="67">
            19.990005493164062 return
          </CharString>
          <CharString index="68">
            102 0 298.97999572753906 hstem
            17 1183.979995727539 vstem
            988 902.9799957275391 rmoveto
            -191 626.0200042724609 -33 14.990005493164062 -75 6 -41 -1 rlinecurve
            -95 -76 callgsubr
            -167 -41 -34 -43 -124 -559 rcurveline
            -210.99000549316406 -749 23 -60 238 callgsubr
            149 callgsubr
            47 -83 callgsubr
            rlinecurve
            915 hlineto
            78.00999450683594 -57 callsubr
            47 109 -77 callsubr
            115.02000427246094 -212.99000549316406 582.9799957275391 rcurveline
            -452.02000427246094 221 rmoveto
            -6 callgsubr
            hlineto
            54 -221 228.99000549316406 -613.9900054931641 -477 -40 callsubr
            142 616.0200042724609 -50 callgsubr
            198.99000549316406 rlineto
            endchar
          </CharString>
          <CharString index="69">
            rmoveto
            -388 994 -76 callsubr
            return
          </CharString>
          <CharString index="70">
            -30.990005493164062 return
          </CharString>
          <CharString index="71">
            156 -20 43 -43 317.5 122.47999572753906 235 42 callgsubr
            hintmask 10110000
            return
          </CharString>
          <CharString index="72">
            -24.990005493164062 return
          </CharString>
          <CharString index="73">
            -461 699 rmoveto
            47 -14 callsubr
            29 callgsubr
            -89 -5 -188.99000549316406 -44 callsubr
            -171 rlinecurve
            -316.00999450683594 -22 89 callgsubr
            103 168.99000549316406 269 70 -56 callsubr
            rlinecurve
            return
          </CharString>
          <CharString index="74">
            20.990005493164062 return
          </CharString>
          <CharString index="75">
            -49.99000549316406 return
          </CharString>
          <CharString index="76">
            283 callgsubr
            hstem
            65 callgsubr
            1155.990005493164 vstem
            return
          </CharString>
          <CharString index="77">
            -12 callsubr
            -15.009994506835938 108 callgsubr
            -19 hhcurveto
            return
          </CharString>
          <CharString index="78">
            288 callsubr
            -56 callsubr
            -65 63 -116 10 4 callgsubr
            81 callsubr
            56 return
          </CharString>
          <CharString index="79">
            -211.99000549316406 return
          </CharString>
          <CharString index="80">
            149 3.9900054931640625 150 7 89.00999450683594 vhcurveto
            return
          </CharString>
          <CharString index="81">
            -437.99000549316406 43 82 callgsubr
            return
          </CharString>
          <CharString index="82">
            30.990005493164062 return
          </CharString>
          <CharString index="83">
            -48.99000549316406 return
          </CharString>
          <CharString index="84">
            -79.00999450683594 -233 -52 -122 22.020004272460938 -34 -82 callsubr
            return
          </CharString>
          <CharString index="85">
            -28 35 -23.979995727539062 -30 callgsubr
            7 return
          </CharString>
          <CharString index="86">
            -26 callsubr
            43 return
          </CharString>
          <CharString index="87">
            -120.00999450683594 return
          </CharString>
          <CharString index="88">
            -45.02000427246094 return
          </CharString>
          <CharString index="89">
            -42.99000549316406 return
          </CharString>
          <CharString index="90">
            106.99000549316406 return
          </CharString>
          <CharString index="91">
            92 -29 88 -66.00999450683594 109 callgsubr
            return
          </CharString>
          <CharString index="92">
            65.99000549316406 return
          </CharString>
          <CharString index="93">
            -8.009994506835938 return
          </CharString>
          <CharString index="94">
            177 callsubr
            350.99000549316406 -174.02000427246094 127 -35 17 -58 -8.990005493164062 -68 -12 -60 return
          </CharString>
          <CharString index="95">
            -62 85 -52 callgsubr
            return
          </CharString>
          <CharString index="96">
            rlinecurve
            -55 callgsubr
            return
          </CharString>
          <CharString index="97">
            -95.99000549316406 return
          </CharString>
          <CharString index="98">
            132 118 1 callgsubr
            return
          </CharString>
          <CharString index="99">
            4.0200042724609375 return
          </CharString>
          <CharString index="100">
            -22.020004272460938 return
          </CharString>
          <CharString index="101">
            100.99000549316406 return
          </CharString>
          <CharString index="102">
            137.99000549316406 88 callgsubr
            31 101 rrcurveto
            123 152 194 callsubr
            -81 -89 -83.00999450683594 -36 53 callsubr
            104 callgsubr
            131 callsubr
            142 21 46 31 241 callsubr
            53 callsubr
            6 -102.02000427246094 -75 callgsubr
            return
          </CharString>
          <CharString index="103">
            103.02000427246094 return
          </CharString>
          <CharString index="104">
            -65.99000549316406 return
          </CharString>
          <CharString index="105">
            -101 -75 callsubr
            275 callgsubr
            -142 18 -41 callsubr
            -34 callgsubr
            -47 callsubr
            97 -6 rrcurveto
            return
          </CharString>
          <CharString index="106">
            278 callsubr
            1274.979995727539 rmoveto
            -68 -475 rlineto
            36.00999450683594 -25 116 -12 61.99000549316406 1 55 0 -66 callsubr
            10 35 flex1
            -16.990005493164062 140.010009765625 -40 116 -16 50 43 190 28 267 6 144 -19 callsubr
            40 -24 callsubr
            36 -52 57 callgsubr
            -161 -36 -157.99000549316406 -118 -63 callsubr
            -105 60 171 callgsubr
            rcurveline
            167 29 27 -178 rlineto
            976.0200042724609 394.02000427246094 rmoveto
            return
          </CharString>
          <CharString index="107">
            361 45.02000427246094 -23.979995727539062 88 return
          </CharString>
          <CharString index="108">
            -62.02000427246094 -34 -68 callsubr
            -122 -7 callsubr
            -233 52 -148.99000549316406 154 callgsubr
            return
          </CharString>
          <CharString index="109">
            1402 rmoveto
            34 callgsubr
            105.99000549316406 return
          </CharString>
          <CharString index="110">
            46 -25 callsubr
            244 callsubr
            -39 -92.02000427246094 -81.02000427246094 -31 callgsubr
            213 callsubr
            -97.02000427246094 32 callsubr
            252 callsubr
            hmoveto
            57 284 callgsubr
            153 -9 callgsubr
            -169 35.99000549316406 40 callsubr
            53 callsubr
            6 return
          </CharString>
          <CharString index="111">
            357.49000549316406 -351.0400085449219 49.53999328613281 426 316 return
          </CharString>
          <CharString index="112">
            hvcurveto
            -74 callsubr
            return
          </CharString>
          <CharString index="113">
            -46 callgsubr
            1329.990005493164 rmoveto
            63 142 40 92 callgsubr
            232 callsubr
            -43 -92 -165.99000549316406 -153 -73.02000427246094 -12 -32 callsubr
            1 -104 65 -47 57 rrcurveto
            return
          </CharString>
          <CharString index="114">
            153 callsubr
            -75 callgsubr
            return
          </CharString>
          <CharString index="115">
            0 callsubr
            -40.02000427246094 return
          </CharString>
          <CharString index="116">
            hvcurveto
            11 30 5 76 callgsubr
            28 callgsubr
            return
          </CharString>
          <CharString index="117">
            751.9799957275391 1622 rmoveto
            259.02000427246094 265.99000549316406 -23 47 -68.02000427246094 220 callgsubr
            101 callgsubr
            7 -131.02000427246094 -132 -54 callgsubr
            -70 callsubr
            292 callgsubr
            18 callsubr
            return
          </CharString>
          <CharString index="118">
            4 -15.009994506835938 -70 callgsubr
            -27 vhcurveto
            return
          </CharString>
          <CharString index="119">
            -28 callsubr
            -74.02000427246094 return
          </CharString>
          <CharString index="120">
            86 callgsubr
            142 151 callgsubr
            return
          </CharString>
          <CharString index="121">
            -30 -104 65 callgsubr
            -94 48 callsubr
            -39 112.00999450683594 return
          </CharString>
          <CharString index="122">
            rrcurveto
            -90 callgsubr
            return
          </CharString>
          <CharString index="123">
            hvcurveto
            46 62 16 -37 callgsubr
            -46 callgsubr
            vvcurveto
            82 -13 78.00999450683594 -17 45 vhcurveto
            -147.99000549316406 28 -100 -234 return
          </CharString>
          <CharString index="124">
            228 callgsubr
            -231.02000427246094 312.00999450683594 rcurveline
            -86 12 callgsubr
            return
          </CharString>
          <CharString index="125">
            202 callsubr
            155.02000427246094 29 callsubr
            48.99000549316406 140 callgsubr
            return
          </CharString>
          <CharString index="126">
            67 callgsubr
            -96.00999450683594 -3 callsubr
            -83 callgsubr
            -47 -63 callsubr
            -103 -145 198 rcurveline
            -91 173 callsubr
            251 callgsubr
            -2 48.99000549316406 -82 callgsubr
            rrcurveto
            return
          </CharString>
          <CharString index="127">
            hhcurveto
            70 64 -77 callsubr
            68.00999450683594 return
          </CharString>
          <CharString index="128">
            -13 callsubr
            rrcurveto
            endchar
          </CharString>
          <CharString index="129">
            45 -208 249 rcurveline
            3.0200042724609375 return
          </CharString>
          <CharString index="130">
            -24 callgsubr
            -76 callgsubr
            -68 callsubr
            -80 callgsubr
            return
          </CharString>
          <CharString index="131">
            rmoveto
            131 callsubr
            142 21 46 31 101 rrcurveto
            122.99000549316406 86 callsubr
            -83 -36 53 callsubr
            6 return
          </CharString>
          <CharString index="132">
            34 callsubr
            43 callgsubr
            -24 callsubr
            48.99000549316406 -44 65 -29 rrcurveto
            return
          </CharString>
          <CharString index="133">
            vstem
            166.99000549316406 688.9900054931641 rmoveto
            -46 -47 callsubr
            -7 callsubr
            -41 callsubr
            12 159 callgsubr
            377.02000427246094 -83 callsubr
            return
          </CharString>
          <CharString index="134">
            52 callgsubr
            105.99000549316406 48 callsubr
            170 callsubr
            118 -41 return
          </CharString>
          <CharString index="135">
            -33.02000427246094 return
          </CharString>
          <CharString index="136">
            9.990005493164062 return
          </CharString>
          <CharString index="137">
            1622 rmoveto
            258.99000549316406 265.99000549316406 -23 47 return
          </CharString>
          <CharString index="138">
            -20 43 -40 43 795.4900054931641 358.5 return
          </CharString>
          <CharString index="139">
            73 callgsubr
            -64 callsubr
            -18 61 rrcurveto
            return
          </CharString>
          <CharString index="140">
            -209 -196 vvcurveto
            -20 callsubr
            return
          </CharString>
          <CharString index="141">
            -91.02000427246094 return
          </CharString>
          <CharString index="142">
            33.02000427246094 return
          </CharString>
          <CharString index="143">
            40 8 136 134 226 callgsubr
            -170.99000549316406 -145 -165 -54 callgsubr
            rlinecurve
            return
          </CharString>
          <CharString index="144">
            -89 -217.99000549316406 -118.99000549316406 -179.02000427246094 -158 return
          </CharString>
          <CharString index="145">
            rmoveto
            3.9900054931640625 22 -70 callgsubr
            35 51 221 40 407 6 49 rlinecurve
            40 -46 -57 18 -59 219 callgsubr
            310 callsubr
            200 callsubr
            28 callsubr
            -698.9799957275391 -56 -70 callgsubr
            return
          </CharString>
          <CharString index="146">
            -70 94 callgsubr
            hvcurveto
            -50 -188.99000549316406 37 callsubr
            52 rcurveline
            55 620.9900054931641 rlineto
            return
          </CharString>
          <CharString index="147">
            hvcurveto
            -39 80 callsubr
            return
          </CharString>
          <CharString index="148">
            43 1549.0199890136719 -15 callgsubr
            return
          </CharString>
          <CharString index="149">
            -10 -53 callsubr
            return
          </CharString>
          <CharString index="150">
            -27.009994506835938 return
          </CharString>
          <CharString index="151">
            28 callsubr
            63 callsubr
            return
          </CharString>
          <CharString index="152">
            1391.979995727539 54 callsubr
            return
          </CharString>
          <CharString index="153">
            vstem
            209.97999572753906 1594.979995727539 rmoveto
            70 77 -43 callsubr
            -19 callsubr
            41 hvcurveto
            -8.990005493164062 -179 -43 -241.99000549316406 -66 -170 rrcurveto
            -171.99000549316406 hlineto
            -86 621 rlineto
            45 callgsubr
            48.99000549316406 76 56 callsubr
            63 hhcurveto
            return
          </CharString>
          <CharString index="154">
            vstem
            298.97999572753906 1241.990005493164 306 callgsubr
            49 callgsubr
            -37 callsubr
            -132 -173.02000427246094 -123 -46 callsubr
            171 callsubr
            -104 45 -94 48 callsubr
            -39 112 16.020004272460938 286 callsubr
            return
          </CharString>
          <CharString index="155">
            71.99000549316406 return
          </CharString>
          <CharString index="156">
            -57.02000427246094 return
          </CharString>
          <CharString index="157">
            7 153.99000549316406 103 19 28 callgsubr
            10 242.99000549316406 -17 401.99000549316406 return
          </CharString>
          <CharString index="158">
            80.02000427246094 return
          </CharString>
          <CharString index="159">
            9.020004272460938 return
          </CharString>
          <CharString index="160">
            -96.99000549316406 return
          </CharString>
          <CharString index="161">
            7 callgsubr
            -83.00999450683594 -36 208 callsubr
            -49 callgsubr
            return
          </CharString>
          <CharString index="162">
            202 callsubr
            155 29 callsubr
            49 140 callgsubr
            return
          </CharString>
          <CharString index="163">
            12.990005493164062 return
          </CharString>
          <CharString index="164">
            88.99000549316406 return
          </CharString>
          <CharString index="165">
            rmoveto
            68 389.02000427246094 28 callgsubr
            56 callsubr
            220 -83 callsubr
            return
          </CharString>
          <CharString index="166">
            193 callsubr
            -143 -72.99000549316406 -12 -50 -68 callgsubr
            -104 65 -47 57 rrcurveto
            return
          </CharString>
          <CharString index="167">
            635.9900054931641 167 callsubr
            107 89 39 92 rrcurveto
            182 callgsubr
            -31 -2 callsubr
            return
          </CharString>
          <CharString index="168">
            11 315.97999572753906 rlinecurve
            -43 35 -61 callsubr
            13 return
          </CharString>
          <CharString index="169">
            -6 callgsubr
            121 return
          </CharString>
          <CharString index="170">
            97.02000427246094 return
          </CharString>
          <CharString index="171">
            1402 rmoveto
            124.99000549316406 105.99000549316406 72 101 callsubr
            return
          </CharString>
          <CharString index="172">
            -21.020004272460938 return
          </CharString>
          <CharString index="173">
            30 callsubr
            -68 220 callgsubr
            179 callgsubr
            254 callgsubr
            -4 -70 callsubr
            return
          </CharString>
          <CharString index="174">
            -33 -70 -112 -28 callsubr
            -75 return
          </CharString>
          <CharString index="175">
            244 callsubr
            -24 callgsubr
            162 callgsubr
            return
          </CharString>
          <CharString index="176">
            274 callsubr
            88 59 128.99000549316406 112 callgsubr
            return
          </CharString>
          <CharString index="177">
            164 callsubr
            396 270.010009765625 28.300003051757812 return
          </CharString>
          <CharString index="178">
            -92 -83 callgsubr
            87 callsubr
            return
          </CharString>
          <CharString index="179">
            -94 314 -12 273 6 70 6 return
          </CharString>
          <CharString index="180">
            -135.99000549316406 return
          </CharString>
          <CharString index="181">
            rmoveto
            57 85 callsubr
            -39 -92 -107.00999450683594 -89 return
          </CharString>
          <CharString index="182">
            723 3 76.97999572753906 hstem
            -69 1863.979995727539 vstem
            return
          </CharString>
          <CharString index="183">
            -150.02000427246094 return
          </CharString>
          <CharString index="184">
            2 callsubr
            72 170 callsubr
            return
          </CharString>
          <CharString index="185">
            -53 callsubr
            -149 -23 callsubr
            return
          </CharString>
          <CharString index="186">
            80 -651 -83 callsubr
            rcurveline
            95 callsubr
            rrcurveto
            return
          </CharString>
          <CharString index="187">
            301 callsubr
            -83 -36 return
          </CharString>
          <CharString index="188">
            -21.009994506835938 return
          </CharString>
          <CharString index="189">
            -92.02000427246094 return
          </CharString>
          <CharString index="190">
            rmoveto
            -712 59.99000549316406 -103 -71 -23 -132 -41 callgsubr
            -120 rlinecurve
            183 -16 72 callgsubr
            rlinecurve
            -32.99000549316406 hlineto
            -34 -36 -4 -10 -27 hvcurveto
            -89 -124 return
          </CharString>
          <CharString index="191">
            -53 263 callsubr
            -231 255 callgsubr
            -166 231 callgsubr
            27 -24 callsubr
            49 -44 return
          </CharString>
          <CharString index="192">
            142 21 123 callgsubr
            return
          </CharString>
          <CharString index="193">
            178 105 callgsubr
            return
          </CharString>
          <CharString index="194">
            119 callgsubr
            -63 callsubr
            -17 callgsubr
            return
          </CharString>
          <CharString index="195">
            55 -20 43 -43 301.99000549316406 return
          </CharString>
          <CharString index="196">
            -106.99000549316406 return
          </CharString>
          <CharString index="197">
            -32 callgsubr
            149 35 callgsubr
            return
          </CharString>
          <CharString index="198">
            2 callsubr
            72.00999450683594 180 callgsubr
            return
          </CharString>
          <CharString index="199">
            -68.02000427246094 return
          </CharString>
          <CharString index="200">
            398.99000549316406 return
          </CharString>
          <CharString index="201">
            1241.990005493164 1225.990005493164 rmoveto
            -10 callsubr
            108 -155 101 -114 54 -712 59.99000549316406 rcurveline
            -103 -71 -23 -132 -41 callgsubr
            -120 183 -16 rcurveline
            return
          </CharString>
          <CharString index="202">
            -83 callgsubr
            -65 -18 195 callgsubr
            return
          </CharString>
          <CharString index="203">
            -70 callgsubr
            rlinecurve
            -40 -7 callsubr
            return
          </CharString>
          <CharString index="204">
            -49 -69 257 callsubr
            return
          </CharString>
          <CharString index="205">
            -3 callsubr
            -44 97 callsubr
            return
          </CharString>
          <CharString index="206">
            -90.00999450683594 return
          </CharString>
          <CharString index="207">
            -109.02000427246094 return
          </CharString>
          <CharString index="208">
            180 callgsubr
            -134.99000549316406 302 callsubr
            return
          </CharString>
          <CharString index="209">
            89 callsubr
            -11 -105 19 -163 -82 callsubr
            -11 callgsubr
            rrcurveto
            return
          </CharString>
          <CharString index="210">
            -149 -44 callgsubr
            -21 callgsubr
            return
          </CharString>
          <CharString index="211">
            22 rlinecurve
            -92 98 callsubr
            return
          </CharString>
          <CharString index="212">
            hvcurveto
            17 197 -77 337.97999572753906 return
          </CharString>
          <CharString index="213">
            hhcurveto
            88 138 -107.99000549316406 -32 return
          </CharString>
          <CharString index="214">
            1608.990005493164 rmoveto
            return
          </CharString>
          <CharString index="215">
            -67 callgsubr
            1 return
          </CharString>
          <CharString index="216">
            -95.00999450683594 return
          </CharString>
          <CharString index="217">
            -82.99000549316406 return
          </CharString>
          <CharString index="218">
            9 -438 306.00999450683594 111.99000549316406 43 1120.0199890136719 -15 callgsubr
            143.99000549316406 316.97999572753906 238.00999450683594 390 vstem
            return
          </CharString>
          <CharString index="219">
            1618.979995727539 rmoveto
            -163 -51 callgsubr
            -176.99000549316406 72.99000549316406 return
          </CharString>
          <CharString index="220">
            103 -19 80 -651 -83 callsubr
            rcurveline
            return
          </CharString>
          <CharString index="221">
            72 callsubr
            45 88 return
          </CharString>
          <CharString index="222">
            -35 callsubr
            23 callgsubr
            return
          </CharString>
          <CharString index="223">
            -109 -46 callgsubr
            return
          </CharString>
          <CharString index="224">
            43 hstem
            -50 callgsubr
            return
          </CharString>
          <CharString index="225">
            -110 -66 callsubr
            return
          </CharString>
          <CharString index="226">
            6.9799957275390625 return
          </CharString>
          <CharString index="227">
            1629 rmoveto
            34 -82 callsubr
            34 62.02000427246094 -4 63 -171 84.99000549316406 -88 54 -128.99000549316406 -46 callgsubr
            -107 -65 -63 -116 return
          </CharString>
          <CharString index="228">
            rmoveto
            746 1 -55 callsubr
            106 37 101 -23 -57 callsubr
            rlinecurve
            -758.0099945068359 -65 -46 63 callgsubr
            -22 -48 12 159 callgsubr
            rlinecurve
            endchar
          </CharString>
          <CharString index="229">
            1396 rmoveto
            -151 212 callsubr
            return
          </CharString>
          <CharString index="230">
            -11 -55 callsubr
            return
          </CharString>
          <CharString index="231">
            rrcurveto
            -58 callsubr
            return
          </CharString>
          <CharString index="232">
            -82 callsubr
            hhcurveto
            return
          </CharString>
          <CharString index="233">
            168 -100 123.99000549316406 20 callsubr
            89 callgsubr
            hvcurveto
            46 62 16 -37 callgsubr
            -46 callgsubr
            vvcurveto
            return
          </CharString>
          <CharString index="234">
            199 callsubr
            -176.99000549316406 98 28 callsubr
            157 61 99 -1 callgsubr
            60 35 callgsubr
            257 callgsubr
            return
          </CharString>
          <CharString index="235">
            -31 callgsubr
            -83 -36 -97 32 callsubr
            return
          </CharString>
          <CharString index="236">
            -35.99000549316406 return
          </CharString>
          <CharString index="237">
            109.02000427246094 return
          </CharString>
          <CharString index="238">
            57.02000427246094 return
          </CharString>
          <CharString index="239">
            -55 callsubr
            vhcurveto
            endchar
          </CharString>
          <CharString index="240">
            24 -20 43 -43 235 926.0199890136719 -92 callgsubr
            390.0399932861328 -49 callsubr
            307 callgsubr
            1056.009994506836 hintmask 10111000
            return
          </CharString>
          <CharString index="241">
            167 callgsubr
            -39 82 callsubr
            return
          </CharString>
          <CharString index="242">
            -20 43 1586.3500061035156 204 callgsubr
            return
          </CharString>
          <CharString index="243">
            43 -43 320.50999450683594 return
          </CharString>
          <CharString index="244">
            169 -48 -169 40 hvcurveto
            return
          </CharString>
          <CharString index="245">
            -55 -83 callgsubr
            return
          </CharString>
          <CharString index="246">
            1737.990005493164 rmoveto
            return
          </CharString>
          <CharString index="247">
            -7 -28 callgsubr
            return
          </CharString>
          <CharString index="248">
            141.99000549316406 return
          </CharString>
          <CharString index="249">
            -72.00999450683594 return
          </CharString>
          <CharString index="250">
            24.990005493164062 return
          </CharString>
          <CharString index="251">
            380.99000549316406 rmoveto
            -143 -48 callgsubr
            59 605 -6 callgsubr
            331 61 callsubr
            return
          </CharString>
          <CharString index="252">
            vvcurveto
            109 callsubr
            150 -118 return
          </CharString>
          <CharString index="253">
            157 callsubr
            rlinecurve
            40 -46 return
          </CharString>
          <CharString index="254">
            588 -20 43 1119.0199890136719 -92 callgsubr
            -37.94999694824219 -49 callsubr
            -82 callgsubr
            1703.990005493164 hintmask 10110000
            return
          </CharString>
          <CharString index="255">
            83.99000549316406 7 54 106 37 112.99000549316406 -23 -37 callgsubr
            return
          </CharString>
          <CharString index="256">
            628 -20 43 -43 317.5 -317.5 329.00999450683594 128.97000122070312 218 hstemhm
            5.9799957275390625 1672 return
          </CharString>
          <CharString index="257">
            rmoveto
            -46 -37 -46 -33 -45 -16 -57 57 -42 71 -34 64 rrcurveto
            return
          </CharString>
          <CharString index="258">
            rmoveto
            -73 callgsubr
            -93 -209 68.02000427246094 return
          </CharString>
          <CharString index="259">
            -68 callgsubr
            rlinecurve
            return
          </CharString>
          <CharString index="260">
            6 111 callgsubr
            return
          </CharString>
          <CharString index="261">
            312.00999450683594 rcurveline
            return
          </CharString>
          <CharString index="262">
            49 callgsubr
            -60 return
          </CharString>
          <CharString index="263">
            -178 31 -225 -77 callsubr
            -168 -69 -356.99000549316406 rcurveline
            -11 -57 16 -31.009994506835938 -62 callgsubr
            -23 rrcurveto
            -70 return
          </CharString>
          <CharString index="264">
            221 40 407 6 49 return
          </CharString>
          <CharString index="265">
            -108.00999450683594 return
          </CharString>
          <CharString index="266">
            211.99000549316406 return
          </CharString>
          <CharString index="267">
            -50.02000427246094 return
          </CharString>
          <CharString index="268">
            148 -75 callsubr
            296.47999572753906 115.49000549316406 214.0399932861328 hstem
            833.0599975585938 385.9199981689453 vstem
            return
          </CharString>
          <CharString index="269">
            75 hhcurveto
            151.97999572753906 166.02000427246094 216 68 callgsubr
            216 callsubr
            -121 111.99000549316406 -175 return
          </CharString>
          <CharString index="270">
            56 callgsubr
            -386.99000549316406 -640 rmoveto
            -85.00999450683594 -3 -107.99000549316406 -4 -81 vhcurveto
            return
          </CharString>
          <CharString index="271">
            339 4.0399932861328125 246 callsubr
            return
          </CharString>
          <CharString index="272">
            rrcurveto
            -139 -15 callsubr
            -4 callsubr
            return
          </CharString>
          <CharString index="273">
            265.99000549316406 -23 47 92 callsubr
            63 return
          </CharString>
          <CharString index="274">
            1565.979995727539 rmoveto
            83 36 return
          </CharString>
          <CharString index="275">
            -33 callgsubr
            -59 return
          </CharString>
          <CharString index="276">
            rrcurveto
            -70 callsubr
            return
          </CharString>
          <CharString index="277">
            94 111 130 return
          </CharString>
          <CharString index="278">
            -29.990005493164062 return
          </CharString>
          <CharString index="279">
            123.99000549316406 return
          </CharString>
          <CharString index="280">
            3 callgsubr
            -4.0200042724609375 62 callgsubr
            return
          </CharString>
          <CharString index="281">
            122 callsubr
            24 return
          </CharString>
          <CharString index="282">
            411.99000549316406 341.47999572753906 return
          </CharString>
          <CharString index="283">
            -62 hvcurveto
            -19 callsubr
            return
          </CharString>
          <CharString index="284">
            -33 callgsubr
            -116 return
          </CharString>
          <CharString index="285">
            -119.00999450683594 return
          </CharString>
          <CharString index="286">
            134 45.02000427246094 155 22 279 callgsubr
            124 callsubr
            -76 callgsubr
            2 -2 37 hvcurveto
            return
          </CharString>
          <CharString index="287">
            -41 -57 callsubr
            -132 1 230 callsubr
            return
          </CharString>
          <CharString index="288">
            60 -325.97999572753906 -240 -19 -46 -78 -22 -83 callgsubr
            12 159 callgsubr
            rlinecurve
            282.00999450683594 hlineto
            return
          </CharString>
          <CharString index="289">
            107 callsubr
            -66 callsubr
            31 return
          </CharString>
          <CharString index="290">
            93 callsubr
            vstem
            return
          </CharString>
          <CharString index="291">
            68 callgsubr
            hhcurveto
            return
          </CharString>
          <CharString index="292">
            20 15.990005493164062 -57 callsubr
            82 68 callgsubr
            268.97999572753906 -66 callsubr
            141 return
          </CharString>
          <CharString index="293">
            106 vvcurveto
            -16 callsubr
            return
          </CharString>
          <CharString index="294">
            97.00999450683594 return
          </CharString>
          <CharString index="295">
            -80.02000427246094 return
          </CharString>
          <CharString index="296">
            hhcurveto
            -69 -355 -72 callgsubr
            return
          </CharString>
          <CharString index="297">
            -21 callsubr
            1134.0299987792969 -49 callsubr
            -50 callgsubr
            return
          </CharString>
          <CharString index="298">
            -4 callgsubr
            -36 -63 -71 -66 -69 rlinecurve
            -99 30 -74 -28 rlineto
            -20.009994506835938 -33 -8.990005493164062 return
          </CharString>
          <CharString index="299">
            114 callsubr
            -72 callsubr
            113 callsubr
            return
          </CharString>
          <CharString index="300">
            137 callsubr
            -18 callsubr
            -92 -166 return
          </CharString>
          <CharString index="301">
            208 callgsubr
            -24 callgsubr
            -92 return
          </CharString>
          <CharString index="302">
            vhcurveto
            -47 234 callgsubr
            return
          </CharString>
          <CharString index="303">
            -169 -3 callgsubr
            hvcurveto
            -39 return
          </CharString>
          <CharString index="304">
            -157 rrcurveto
            -43 callsubr
            -25 return
          </CharString>
          <CharString index="305">
            -85 -82 callgsubr
            -64 return
          </CharString>
          <CharString index="306">
            1280 rmoveto
            -163 -2 return
          </CharString>
          <CharString index="307">
            -453.02000427246094 rcurveline
            return
          </CharString>
          <CharString index="308">
            116.97999572753906 return
          </CharString>
          <CharString index="309">
            -190 rcurveline
            52 -11 return
          </CharString>
          <CharString index="310">
            -64.99000549316406 return
          </CharString>
          <CharString index="311">
            -68 callsubr
            122 -7 callsubr
            233 52 148.99000549316406 154 callgsubr
            return
          </CharString>
          <CharString index="312">
            rlineto
            -16 34 35 -7 34.02000427246094 hhcurveto
            -66 callsubr
            52 18 43.99000549316406 42 hvcurveto
            return
          </CharString>
          <CharString index="313">
            97 callgsubr
            39 44 62 87 100 -89 return
          </CharString>
          <CharString index="314">
            113.99000549316406 return
          </CharString>
          <CharString index="315">
            -97.00999450683594 return
          </CharString>
          <CharString index="316">
            1391.979995727539 rmoveto
            69 callgsubr
            101 rrcurveto
            123 return
          </CharString>
          <CharString index="317">
            34 callgsubr
            76 callsubr
            -48 callgsubr
            19 -64 callsubr
            54 221 return
          </CharString>
          <CharString index="318">
            854.9900054931641 93 callsubr
            return
          </CharString>
          <CharString index="319">
            -131 -99 92 rlineto
            130 callsubr
            return
          </CharString>
          <CharString index="320">
            110 callsubr
            -36 return
          </CharString>
          <CharString index="321">
            120 callgsubr
            rmoveto
            return
          </CharString>
          <CharString index="322">
            -24 callgsubr
            -80 return
          </CharString>
          <CharString index="323">
            -50 callgsubr
            hvcurveto
            return
          </CharString>
          <CharString index="324">
            -51 callgsubr
            -3 return
          </CharString>
          <CharString index="325">
            85 88 288 callsubr
            -17 callsubr
            -65 131 callgsubr
            -116 return
          </CharString>
          <CharString index="326">
            rmoveto
            -68 -389.02000427246094 141 callsubr
            -57 85.02000427246094 74.02000427246094 return
          </CharString>
          <CharString index="327">
            35 101 rrcurveto
            135.99000549316406 193 callsubr
            return
          </CharString>
          <CharString index="328">
            238.50999450683594 -237.49998474121094 270 369.0299835205078 -49 callsubr
            return
          </CharString>
          <CharString index="329">
            -47 97 -53 -33 callgsubr
            228 callgsubr
            return
          </CharString>
          <CharString index="330">
            -100 -85.02000427246094 -159.99000549316406 -136 return
          </CharString>
          <CharString index="331">
            hhcurveto
            -47 callsubr
            -152.99000549316406 87 53 return
          </CharString>
          <CharString index="332">
            -198.99000549316406 -142 hhcurveto
            return
          </CharString>
          <CharString index="333">
            1 18 -70 callgsubr
            return
          </CharString>
          <CharString index="334">
            204.99000549316406 return
          </CharString>
          <CharString index="335">
            -114.00999450683594 return
          </CharString>
          <CharString index="336">
            434.00999450683594 hstem
            -40 callsubr
            445.99000549316406 vstem
            -40 callsubr
            return
          </CharString>
          <CharString index="337">
            279 callsubr
            -200.99000549316406 27 callgsubr
            return
          </CharString>
          <CharString index="338">
            7 -130.99000549316406 272 callgsubr
            return
          </CharString>
          <CharString index="339">
            35 101 rrcurveto
            136 137 callsubr
            return
          </CharString>
          <CharString index="340">
            -46 callgsubr
            248 callsubr
            return
          </CharString>
          <CharString index="341" raw="1">
            f0f7a80a 5bfb3d0b  
          </CharString>
          <CharString index="342">
            rlinecurve
            -62 callsubr
            return
          </CharString>
          <CharString index="343">
            -6 callsubr
            rrcurveto
            return
          </CharString>
          <CharString index="344">
            -126.00999450683594 return
          </CharString>
          <CharString index="345">
            75.97999572753906 return
          </CharString>
          <CharString index="346">
            102.99000549316406 return
          </CharString>
          <CharString index="347">
            467.99000549316406 return
          </CharString>
          <CharString index="348">
            101 rrcurveto
            122 142 callgsubr
            245 callgsubr
            return
          </CharString>
          <CharString index="349">
            hstem
            119 callsubr
            305 130.510009765625 530.4900054931641 vstem
            return
          </CharString>
          <CharString index="350">
            283 callsubr
            -73 callgsubr
            99 return
          </CharString>
          <CharString index="351">
            225 callgsubr
            152 167 callgsubr
            return
          </CharString>
          <CharString index="352">
            1609.3500061035156 204 callgsubr
            hstemhm
            return
          </CharString>
          <CharString index="353">
            -49 callsubr
            18.979995727539062 return
          </CharString>
          <CharString index="354">
            142 21 46 31 236 callsubr
            return
          </CharString>
          <CharString index="355">
            16 136 81 145 vvcurveto
            return
          </CharString>
          <CharString index="356">
            -18 callgsubr
            -43 62 return
          </CharString>
          <CharString index="357">
            28.020004272460938 return
          </CharString>
          <CharString index="358">
            117.99000549316406 return
          </CharString>
          <CharString index="359">
            468.00999450683594 return
          </CharString>
          <CharString index="360">
            -424 1246.979995727539 485 hstem
            75 522.9900054931641 vstem
            75 return
          </CharString>
          <CharString index="361">
            172 callsubr
            hhcurveto
            70 64 return
          </CharString>
          <CharString index="362">
            56 -8.990005493164062 64 rrcurveto
            return
          </CharString>
          <CharString index="363">
            -20 136 callsubr
            return
          </CharString>
          <CharString index="364">
            -101 -168 198 rcurveline
            return
          </CharString>
          <CharString index="365">
            rrcurveto
            -62 callsubr
            return
          </CharString>
          <CharString index="366">
            13 -40 callsubr
            return
          </CharString>
          <CharString index="367">
            -6 callsubr
            63 116 107 65 129 -46 callsubr
            return
          </CharString>
          <CharString index="368">
            142 20.990005493164062 287 callgsubr
            123 return
          </CharString>
          <CharString index="369">
            -46 -57 -142 18 -41 callsubr
            return
          </CharString>
          <CharString index="370">
            -58 callgsubr
            228 callgsubr
            return
          </CharString>
          <CharString index="371">
            217.99000549316406 return
          </CharString>
          <CharString index="372">
            270.99000549316406 return
          </CharString>
          <CharString index="373">
            -41 -20 330.99000549316406 hstem
            -33 callsubr
            1003 vstem
            return
          </CharString>
          <CharString index="374">
            5 callsubr
            5 142 callsubr
            24 -286 vhcurveto
            return
          </CharString>
          <CharString index="375">
            -33.99000549316406 508.97999572753906 hstem
            14.990005493164062 return
          </CharString>
          <CharString index="376">
            1132.990005493164 -407.49000549316406 267.47999572753906 return
          </CharString>
          <CharString index="377">
            43 92 rrcurveto
            169 -40 -169 48 -136 hhcurveto
            -35 -101 -40 return
          </CharString>
          <CharString index="378">
            -92 callgsubr
            -31.949996948242188 -92 callgsubr
            return
          </CharString>
          <CharString index="379">
            -48 -169 35.97999572753906 hvcurveto
            -38.99000549316406 -92 return
          </CharString>
          <CharString index="380">
            20 callsubr
            51 hvcurveto
            return
          </CharString>
          <CharString index="381">
            300 callgsubr
            171 85 return
          </CharString>
          <CharString index="382">
            1320.979995727539 rmoveto
            return
          </CharString>
          <CharString index="383" raw="1">
            08f70ff7 2c0b  
          </CharString>
          <CharString index="384">
            120.00999450683594 return
          </CharString>
          <CharString index="385">
            401.97999572753906 return
          </CharString>
          <CharString index="386">
            -113 -88 -77 return
          </CharString>
          <CharString index="387">
            22 rlinecurve
            -92 303 callsubr
            return
          </CharString>
          <CharString index="388">
            hstem
            10.990005493164062 841.9900054931641 vstem
            261 return
          </CharString>
          <CharString index="389">
            -13 -36 6 -76 return
          </CharString>
          <CharString index="390">
            199 callsubr
            -177 98 -33 157 return
          </CharString>
          <CharString index="391">
            -12 -29 rrcurveto
            -4 -22 -21 -3 -18 hhcurveto
            -94 2 -175 return
          </CharString>
          <CharString index="392">
            187 callgsubr
            -48 callsubr
            rlineto
            endchar
          </CharString>
          <CharString index="393">
            49 311 callgsubr
            51 34 rrcurveto
            return
          </CharString>
          <CharString index="394">
            334.99000549316406 rlineto
            5 hlineto
            return
          </CharString>
          <CharString index="395">
            59 129 -46 callgsubr
            return
          </CharString>
          <CharString index="396">
            1083.990005493164 return
          </CharString>
          <CharString index="397">
            -501 -20 43 hstem
            return
          </CharString>
          <CharString index="398">
            83.00999450683594 return
          </CharString>
          <CharString index="399">
            104.02000427246094 return
          </CharString>
          <CharString index="400">
            139 callsubr
            10 -6 callsubr
            return
          </CharString>
          <CharString index="401">
            -70 callsubr
            225 202 callsubr
            return
          </CharString>
          <CharString index="402">
            425 94 vvcurveto
            11 vlineto
            84.00999450683594 -71 return
          </CharString>
          <CharString index="403">
            -135 -204.99000549316406 100 callsubr
            return
          </CharString>
          <CharString index="404">
            -57 callsubr
            rrcurveto
            return
          </CharString>
          <CharString index="405">
            hstem
            -66 callsubr
            return
          </CharString>
          <CharString index="406">
            -73 callgsubr
            rrcurveto
            return
          </CharString>
          <CharString index="407">
            -11 108 -2 49 -82 callgsubr
            rrcurveto
            return
          </CharString>
          <CharString index="408">
            82 callsubr
            -81 -31 callgsubr
            return
          </CharString>
          <CharString index="409">
            43 callsubr
            -32 -18 callgsubr
            return
          </CharString>
          <CharString index="410">
            -3 callsubr
            -62 callsubr
            -49 return
          </CharString>
          <CharString index="411">
            -620.9900054931641 rlineto
            -9 return
          </CharString>
          <CharString index="412">
            126 callgsubr
            rrcurveto
            return
          </CharString>
          <CharString index="413">
            -76 callgsubr
            -16 -3 return
          </CharString>
          <CharString index="414">
            259.00999450683594 return
          </CharString>
          <CharString index="415">
            40.02000427246094 return
          </CharString>
          <CharString index="416">
            -1 -1 0 -1 vvcurveto
            return
          </CharString>
          <CharString index="417">
            127.02000427246094 return
          </CharString>
          <CharString index="418">
            6 337 rlinecurve
            35 -46 -53 13 -59 hhcurveto
            return
          </CharString>
          <CharString index="419">
            -422 -291 2142.990005493164 hstem
            return
          </CharString>
          <CharString index="420">
            239.50999450683594 -238.49998474121094 return
          </CharString>
          <CharString index="421">
            -34 -5 -115 59 -197 76 -47 74 return
          </CharString>
          <CharString index="422">
            53 -41 93 callgsubr
            -42 12 rlinecurve
            return
          </CharString>
          <CharString index="423">
            103 -17 46 hvcurveto
            return
          </CharString>
          <CharString index="424">
            62 -24 66 rrcurveto
            return
          </CharString>
        <CharString name=".notdef">
          587 0 347.13999938964844 844.8500061035156 340.99000549316406 hstem
          221.97999572753906 206.49000549316406 849.3699951171875 203.13999938964844 vstem
          290.97999572753906 hmoveto
          1114.009994506836 hlineto
          51 209 callgsubr
          29 46.99000549316406 hvcurveto
          1381 vlineto
          47 -25.009994506835938 29 -51 vhcurveto
          -1117 hlineto
          -41 -25 -29 -32 callsubr
          hvcurveto
          -1376.009994506836 vlineto
          -24 callsubr
          25 -29 43.99000549316406 vhcurveto
          970.0200042724609 413 rmoveto
          -52 276 callgsubr
          -7 callsubr
          -22 -26.990005493164062 2 -24 25 rlinecurve
          -280.97999572753906 279 -276 -277.02000427246094 -44 callsubr
          -26.990005493164062 -28 -1 -35 callsubr
          -6 callgsubr
          rlinecurve
          -55 -66 callsubr
          -22 22 1 250 callsubr
          18 17 rlinecurve
          285 285 -287 289 -17 16 -5 26 22 22 rlinecurve
          -73 callgsubr
          58 45 callgsubr
          21 143 callsubr
          -6.9900054931640625 15.020004272460938 -15.009994506835938 rlinecurve
          287 -287.99000549316406 280.97999572753906 281.99000549316406 15.020004272460938 16 -50 callgsubr
          8 23 -24 rlinecurve
          -33 callgsubr
          -69 19.009994506835938 -18 -5.0200042724609375 -25 -23 -22 rlinecurve
          -274.97999572753906 -275.97999572753906 284 -284.02000427246094 21 -36 callgsubr
          3 -44 callsubr
          -24 239 callgsubr
          rlinecurve
          endchar
        </CharString>
        <CharString name="A">
          -36 callsubr
          1024.979995727539 1366 -102 callsubr
        </CharString>
        <CharString name="AE">
          149 callsubr
          hintmask 00000000
          hintmask 00111000
          1640 473.99000549316406 -85 callsubr
        </CharString>
        <CharString name="AEacute">
          149 callsubr
          hintmask 10011000
          1274.979995727539 40 callgsubr
          hintmask 00111000
          365.02000427246094 -1264 -85 callsubr
        </CharString>
        <CharString name="Aacute">
          -36 callsubr
          997.9900054931641 1737.990005493164 rmoveto
          -10 11 callgsubr
          149 154 callgsubr
          -52 callsubr
          -372 -102 callsubr
        </CharString>
        <CharString name="Abreve">
          156 -20 43 -43 317.5 122.47999572753906 235 964 262 42 callgsubr
          hintmask 10111000
          671.9900054931641 15 callgsubr
          353 -252.99000549316406 -67 callsubr
        </CharString>
        <CharString name="Acircumflex">
          -36 callsubr
          468.99000549316406 -53 callgsubr
          -52 callsubr
          -49 49 -62 callsubr
          65 -29 rrcurveto
          555.9900054931641 -243 -102 callsubr
        </CharString>
        <CharString name="Adieresis">
          -36 callsubr
          460.97999572753906 91 callgsubr
          17.990005493164062 -61 -34 callgsubr
          54 callgsubr
          102.02000427246094 63 callgsubr
          90 callgsubr
          -6 rrcurveto
          -57 callsubr
          -220 -102 callsubr
        </CharString>
        <CharString name="Agrave">
          -36 callsubr
          823.9900054931641 120 callsubr
          -9.990005493164062 -53 callsubr
          148.99000549316406 267 callgsubr
          200.99000549316406 -263 -102 callsubr
        </CharString>
        <CharString name="Amacron">
          156 -20 43 -43 317.5 122.47999572753906 235 1002.010009765625 264 42 callgsubr
          hintmask 10111000
          991.9900054931641 1657 rmoveto
          45 88 -72 callsubr
          103 -19 79 callsubr
          33 -291 -67 callsubr
        </CharString>
        <CharString name="Aogonek">
          156 -26 callsubr
          317.5 -305.5 43 384.97999572753906 235 42 callgsubr
          hintmask 10111000
          1245 34 rmoveto
          5.9799957275390625 101.99000549316406 2 94 -228 1136 -250 76 -253.99000549316406 63 -266 43.99000549316406 -83 -75 -42 -155 -76 callgsubr
          -102.99000549316406 53 -20.009994506835938 83.99000549316406 -16 93 -13 rrcurveto
          hintmask 11011000
          -174 -875.0099945068359 -131.99000549316406 11 -19 callsubr
          -163 38 -99 110 -58.97999572753906 112 -2 rlinecurve
          222.99000549316406 -4 30 236.99000549316406 43 callgsubr
          225 84.99000549316406 -7 101.00999450683594 -6.9900054931640625 67.99000549316406 -48 callsubr
          rrcurveto
          54 hlineto
          60 callgsubr
          -87 rlineto
          hintmask 10111000
          -81 -272 30 -74 callsubr
          50 -24 58.97999572753906 -13 rlinecurve
          -93 -58 -103 63 callgsubr
          -81 145 callsubr
          63 callsubr
          116 79 64 131 -33 callgsubr
          195 callsubr
          -83 callsubr
          13 39 73.00999450683594 148 78.99000549316406 71 52 rlinecurve
          -676 599 rmoveto
          23 206.99000549316406 15 210 5 88 30 -2 29 -76 callgsubr
          -18 callgsubr
          -2 104 -476 rcurveline
          -47 callsubr
          -7 -84.99000549316406 -7.9900054931640625 -70 -7 rrcurveto
          endchar
        </CharString>
        <CharString name="Aring">
          156 -20 43 -43 317.5 122.47999572753906 235 872 182 115 195.99000549316406 hstemhm
          372.97999572753906 216 158 218 hintmask 10111110
          651.9799957275391 281 callgsubr
          291 callgsubr
          hvcurveto
          90.00999450683594 -39 callgsubr
          429 -453 rmoveto
          -250 76 -253.99000549316406 63 -266 43.99000549316406 -83 -75 -42 -155 -76 callgsubr
          -102.99000549316406 53 -20.009994506835938 83.99000549316406 -16 93 -13 rrcurveto
          hintmask 01111110
          -174 -875.0099945068359 -131.99000549316406 11 -19 callsubr
          -163 38 -99 110 -58.97999572753906 112 -2 rlinecurve
          222.99000549316406 -4 30 236.99000549316406 43 callgsubr
          225 84.99000549316406 -7 101.00999450683594 -6.9900054931640625 67.99000549316406 -48 callsubr
          rrcurveto
          54 hlineto
          60 callgsubr
          -87 -81 -272 48 -51 98 -30.979995727539062 -4 callsubr
          152 callsubr
          70.99000549316406 1 73.00999450683594 16.020004272460938 60 169 callgsubr
          hintmask 10111110
          5.9799957275390625 101.99000549316406 2 94 -228 1136 rrcurveto
          -455.99000549316406 -733 rmoveto
          23 206.99000549316406 15 210 5 88 30 -2 29 -76 callgsubr
          -18 callgsubr
          -2 104 -476 rcurveline
          -47 callsubr
          -7 -84.99000549316406 -7.9900054931640625 -70 -7 rrcurveto
          endchar
        </CharString>
        <CharString name="Atilde">
          -36 callsubr
          500 26 callgsubr
          524.9900054931641 -379 -102 callsubr
        </CharString>
        <CharString name="B">
          261 callgsubr
          1275.990005493164 610.9700012207031 -78 callsubr
        </CharString>
        <CharString name="C">
          -105 -20 43 hstemhm
          82.97999572753906 431.5500030517578 hintmask 00000000
          hintmask 11000000
          509.99000549316406 1169.979995727539 -96 callsubr
        </CharString>
        <CharString name="CR">
          -787 endchar
        </CharString>
        <CharString name="Cacute">
          -105 -20 43 -42 callgsubr
          889.9900054931641 hintmask 10100000
          313 300 callgsubr
          170.99000549316406 85 88 -29 callsubr
          -8.990005493164062 64 rrcurveto
          hintmask 11000000
          197 -616.0200042724609 -96 callsubr
        </CharString>
        <CharString name="Ccaron">
          -105 135 callsubr
          -42 callgsubr
          889.9900054931641 hintmask 11010000
          671.9900054931641 66 callsubr
          292 callgsubr
          55 callsubr
          hintmask 11100000
          -162 -452.02000427246094 -96 callsubr
        </CharString>
        <CharString name="Ccedilla">
          -105 -408 239 -239 1956.979995727539 -42 callgsubr
          889.9900054931641 hintmask 01010000
          972.9799957275391 304.97999572753906 rmoveto
          -75 167 rlineto
          hintmask 01100000
          -196 -72.99000549316406 -152 58 callgsubr
          -80 -11.979995727539062 23 195.99000549316406 35 460 -18 193.99000549316406 24 22.020004272460938 rcurveline
          100 -89 -46 callgsubr
          -55 91 -37.99000549316406 -55 callgsubr
          -315.97999572753906 -22 rcurveline
          -62 -77 callsubr
          73 callsubr
          46 -61 12 -118.99000549316406 -62 callsubr
          -142 -125.00999450683594 -25.009994506835938 -94 rrcurveto
          -15 0 -66 6 -34 vhcurveto
          22 -116 17.020004272460938 -225 -67 callgsubr
          -217 11 -161 8 -157 5 -102.99000549316406 5 28 callsubr
          16 -28 46 -36 rrcurveto
          hintmask 10100000
          54 -42 90.00999450683594 -41 callsubr
          69 -11 68 -150 rcurveline
          -65 66 callgsubr
          23 16 -68 hvcurveto
          -13 -41.99000549316406 -13 -71 4 -53 31 -40 -56 callsubr
          -71 105 -1 rrcurveto
          11 10 1 1 52 callsubr
          hvcurveto
          172 callsubr
          42 109 103 30 116 -116 180.97999572753906 rcurveline
          hintmask 01010000
          149.02000427246094 70 117 116 47.99000549316406 83 rrcurveto
          endchar
        </CharString>
        <CharString name="Ccircumflex">
          -105 -20 43 -42 callgsubr
          889.9900054931641 hintmask 10100000
          351.99000549316406 165 callgsubr
          84.99000549316406 -52 callgsubr
          -15 -19 1 -19 hhcurveto
          -89 173 callgsubr
          -35 callgsubr
          43 callgsubr
          33 callgsubr
          hintmask 11000000
          158 -439.00999450683594 -96 callsubr
        </CharString>
        <CharString name="Cdotaccent">
          -105 -20 43 -42 callgsubr
          889.9900054931641 hintmask 10100000
          338.97999572753906 1710.979995727539 rmoveto
          57 142 45 callgsubr
          287 callgsubr
          122.97999572753906 178 -48 -169 36 hvcurveto
          -39.02000427246094 -92 -106.99000549316406 2 callgsubr
          hintmask 11000000
          171 -541 -96 callsubr
        </CharString>
        <CharString name="D">
          218 222 callgsubr
          vstem
          1241.990005493164 1225.990005493164 -87 callsubr
        </CharString>
        <CharString name="DC1">
          endchar
        </CharString>
        <CharString name="DC2">
          endchar
        </CharString>
        <CharString name="DC3">
          endchar
        </CharString>
        <CharString name="DC4">
          endchar
        </CharString>
        <CharString name="DEL">
          endchar
        </CharString>
        <CharString name="DLE">
          endchar
        </CharString>
        <CharString name="Dcaron">
          218 135 callsubr
          hstem
          211 callsubr
          vstem
          792.9900054931641 21 callgsubr
          449 -396 -87 callsubr
        </CharString>
        <CharString name="Dcroat">
          -81 callgsubr
        </CharString>
        <CharString name="E">
          158 callgsubr
          -5 callgsubr
          hintmask 11000000
          902.9799957275391 1548.979995727539 rmoveto
          -412 -94 rlineto
          hintmask 10100000
          -102 callgsubr
          hintmask 11000000
          -16 callsubr
          endchar
        </CharString>
        <CharString name="Eacute">
          158 callgsubr
          -5 callgsubr
          hintmask 11000000
          281.97999572753906 69 callsubr
          65 callsubr
          255 callsubr
          621 -237.02000427246094 rmoveto
          -412 -94 rlineto
          hintmask 10100000
          -102 callgsubr
          hintmask 11000000
          -16 callsubr
          endchar
        </CharString>
        <CharString name="Ebreve">
          158 callgsubr
          1274.0299835205078 40.96000671386719 241 callgsubr
          523.9799957275391 112 callsubr
          -33 256 callgsubr
          95.00999450683594 60 78.99000549316406 252 callgsubr
          rrcurveto
          -139 66 103 1 32 hhcurveto
          27 95 18 101 83.99000549316406 hvcurveto
          110 -94 -18 callsubr
          -163 -171 -120 -165 -48 callsubr
          rlinecurve
          379 -70 rmoveto
          -412 -94 rlineto
          hintmask 11010000
          -102 callgsubr
          hintmask 11100000
          -16 callsubr
          endchar
        </CharString>
        <CharString name="Ecaron">
          158 callgsubr
          1305.3600006103516 204 callgsubr
          241 callgsubr
          640.9799957275391 1622 rmoveto
          307 callsubr
          265.99000549316406 -23 47 -68.00999450683594 63 -50 104 callsubr
          -91 7 -131 272 callgsubr
          155 29 callsubr
          48.99000549316406 140 callgsubr
          262 -73.02000427246094 rmoveto
          -412 -94 rlineto
          hintmask 11010000
          -102 callgsubr
          hintmask 11100000
          -16 callsubr
          endchar
        </CharString>
        <CharString name="Ecircumflex">
          158 callgsubr
          -5 callgsubr
          hintmask 11000000
          320.97999572753906 128 callgsubr
          85 -71 89 271 callgsubr
          -208.02000427246094 249 rcurveline
          3.0200042724609375 -51 callsubr
          -19 1 -19 hhcurveto
          -31 callgsubr
          -143.02000427246094 -44 callsubr
          -34 -83 callgsubr
          hvcurveto
          -57 -92 -38 270 callgsubr
          27 -49 49 -62 callsubr
          64.97999572753906 -29 rrcurveto
          582 -60 rmoveto
          -412 -94 rlineto
          hintmask 10100000
          -102 callgsubr
          hintmask 11000000
          -16 callsubr
          endchar
        </CharString>
        <CharString name="Edieresis">
          158 callgsubr
          -5 callgsubr
          hintmask 11000000
          -57 callsubr
          197 callgsubr
          45 callgsubr
          3 callsubr
          -102.00999450683594 -64 callsubr
          -17.990005493164062 61 rrcurveto
          338.99000549316406 -182 rmoveto
          -412 -94 rlineto
          hintmask 10100000
          -102 callgsubr
          hintmask 11000000
          -16 callsubr
          endchar
        </CharString>
        <CharString name="Edotaccent">
          158 callgsubr
          -5 callgsubr
          hintmask 11000000
          308 1710.979995727539 74 callsubr
          -83 80 callgsubr
          594.9900054931641 -162 rmoveto
          -412 -94 rlineto
          hintmask 10100000
          -102 callgsubr
          hintmask 11000000
          -16 callsubr
          endchar
        </CharString>
        <CharString name="Egrave">
          158 callgsubr
          -5 callgsubr
          hintmask 11000000
          171.99000549316406 1737.990005493164 rmoveto
          10 260 callsubr
          88 -54 170.99000549316406 -84.99000549316406 -8 callsubr
          -63 -34.02000427246094 1 callsubr
          730.9900054931641 -189 rmoveto
          -412 -94 rlineto
          hintmask 10100000
          -102 callgsubr
          hintmask 11000000
          -16 callsubr
          endchar
        </CharString>
        <CharString name="Emacron">
          158 callgsubr
          1353 264 241 callgsubr
          232.97999572753906 1914 rmoveto
          95 callsubr
          45.02000427246094 88 -67 callgsubr
          103 -43 callsubr
          80 -651.0200042724609 -83 callsubr
          rcurveline
          670 -365.02000427246094 rmoveto
          -412 -94 rlineto
          hintmask 11010000
          -102 callgsubr
          hintmask 11100000
          -16 callsubr
          endchar
        </CharString>
        <CharString name="Eng">
          255 -435.99000549316406 43 -43 304 111.99000549316406 38 callgsubr
          hintmask 10101000
          1211.990005493164 348 rmoveto
          80 1137.990005493164 rlineto
          28 -41 -71.99000549316406 15.020004272460938 -53 hhcurveto
          -106 -112.99000549316406 -46 -53 -25 hvcurveto
          -150 107 -737.0200042724609 40.99000549316406 -238 vhcurveto
          -4 -4 -384 289 callsubr
          -76 callsubr
          hintmask 01011000
          8 -879 99 callgsubr
          -31 -163 rlineto
          -99 47 112.99000549316406 -62.99000549316406 184 callsubr
          153 59 97.99000549316406 52 callgsubr
          14.990005493164062 -1 15 -1 15.009994506835938 hvcurveto
          -27 258.99000549316406 -148 562.0099945068359 -30 99 5 -86 callsubr
          rcurveline
          437 -925 113 -249.97999572753906 15 -127 rlineto
          -93 -198 -50 callgsubr
          22 -98 hvcurveto
          -51 callsubr
          -50 -12 -47 -58 vvcurveto
          -12 1 -12 -68 callgsubr
          -13 vhcurveto
          44 -58 202 -53 callsubr
          150 -1 rrcurveto
          15.020004272460938 108 callsubr
          -86 callsubr
          -72 callsubr
          hvcurveto
          176 60 125.99000549316406 147 43 110 callgsubr
          -27.020004272460938 119.99000549316406 rcurveline
          hintmask 10101000
          -52 288.00999450683594 rlineto
          endchar
        </CharString>
        <CharString name="Eogonek">
          -6 -437.99000549316406 43 390.99000549316406 43 -18 callsubr
          307.97999572753906 -5 callgsubr
          hintmask 11010000
          855.9799957275391 -86 callsubr
          rmoveto
          hintmask 10110000
          82 38 64 69 42 83.99000549316406 rrcurveto
          89 -17 136 -21 55.99000549316406 vhcurveto
          -180 15 -82 -190 rlineto
          hintmask 10101000
          -287 10 14 355 rlineto
          -61 callgsubr
          -17 callsubr
          138 -23 129 hhcurveto
          -62 callgsubr
          -40 callsubr
          -68 callgsubr
          2 141 callgsubr
          23 25 28 83 86 vvcurveto
          54 123 callsubr
          -29 44 vhcurveto
          -150 -31 -93 -25.009994506835938 -210 -23 -39 320 rcurveline
          215 -59 135.99000549316406 -39 118 -11 rrcurveto
          66.00999450683594 49.99000549316406 39 113.00999450683594 186 callsubr
          -412 -94 -333 73.00999450683594 rlineto
          110 callsubr
          -58 -17 callgsubr
          -116 -89 vvcurveto
          242.99000549316406 -584 -158 -417 10 -71 33 -64.97999572753906 50 -60 rlinecurve
          97 -44 callsubr
          169 -29 154 -16.970001220703125 rrcurveto
          -94 -58 -108.02000427246094 188 callsubr
          110 callsubr
          vvcurveto
          109 callsubr
          188 callgsubr
          -118 97 116 78.99000549316406 64 131 -33 callgsubr
          195 callsubr
          -14 13 rlineto
          hintmask 11010000
          -52 callsubr
          49 110 48 callsubr
          76 50.99000549316406 rrcurveto
          endchar
        </CharString>
        <CharString name="Eth">
          -81 callgsubr
        </CharString>
        <CharString name="Euro">
          92 -20 43 469.99000549316406 170.49000549316406 -169.00001525878906 200.49000549316406 117.02000427246094 160.5 -158.98001098632812 190.97999572753906 hstemhm
          35.75999450683594 1104.240005493164 -977.0200042724609 399.00999450683594 -334.00999450683594 307.50999450683594 -296.50999450683594 264 hintmask 0000000000000000
          hintmask 1010100010000000
          479.99000549316406 320 rmoveto
          5 43.99000549316406 8 60 10 70 345 -68 callgsubr
          rcurveline
          38 74.02000427246094 15.009994506835938 69 -16.020004272460938 -58 callgsubr
          rrcurveto
          hintmask 1010100100000000
          -356.99000549316406 -36 callgsubr
          15 128 335.00999450683594 1 -58 callsubr
          74 14.990005493164062 59 -16 -58 callgsubr
          rlinecurve
          hintmask 1010101000000000
          -352.99000549316406 129 callgsubr
          8 292 callsubr
          4 92 -5 59 rlinecurve
          24 22 279 callgsubr
          -89 225.02000427246094 -63 82 -20 rlinecurve
          -66 callsubr
          -18 callgsubr
          126.00999450683594 112 -54 254 rrcurveto
          -323.00999450683594 hlineto
          -92 -40 callsubr
          -192 24 -41 callsubr
          12 178 callsubr
          -62 callsubr
          -152 -125.00999450683594 -25.009994506835938 -94 rrcurveto
          hintmask 1011001000000000
          -15 0 -66 6 -34 vhcurveto
          -27 callgsubr
          -24 callsubr
          10 92 callsubr
          10 63 callgsubr
          rrcurveto
          hintmask 1101000100000000
          -121 -7 -74 callsubr
          -55 -16 -22 9 -80 rlinecurve
          177.99000549316406 hlineto
          -8 callsubr
          -47 5 -49 -80 callgsubr
          -24 callsubr
          rrcurveto
          hintmask 1100100010000000
          171 callgsubr
          -7 -32 -61 callsubr
          -16 -32 -27 callgsubr
          -80 rlinecurve
          180.99000549316406 hlineto
          7 -116 4.0099945068359375 -108.02000427246094 6 -76.97999572753906 -80 callgsubr
          28 callsubr
          18 -28 46 -36 rrcurveto
          -46 59 101.99000549316406 -68.99000549316406 71 hhcurveto
          236 -50 callgsubr
          250 171 68 117 rrcurveto
          hintmask 1010110000000000
          -65 148.99000549316406 rlineto
          hintmask 1010100010000000
          -171.99000549316406 -9 callgsubr
          -222 -40.02000427246094 -170 -34.970001220703125 rrcurveto
          endchar
        </CharString>
        <CharString name="F">
          266 callsubr
          531.9900054931641 827.9900054931641 -59 callsubr
        </CharString>
        <CharString name="G">
          88 callsubr
          -42 callgsubr
          1065 hintmask 10010000
          1147.990005493164 719.9900054931641 -80 callsubr
          hintmask 01100000
          -105 callsubr
          hintmask 10010000
          98 221 rlineto
          endchar
        </CharString>
        <CharString name="Gbreve">
          88 callsubr
          1336.989990234375 262 -42 callgsubr
          1065 hintmask 10101000
          634.9799957275391 1618.979995727539 rmoveto
          165 -8 callsubr
          171 120 -23 callgsubr
          163 -110 94 rcurveline
          -101 -83.99000549316406 -95 -18 -27 hhcurveto
          -32 -102.99000549316406 -1 139 -66.00999450683594 hvcurveto
          -78.99000549316406 -12.979995727539062 -95 -60 -61 -99 33 -157 176.99000549316406 -72.99000549316406 163 -86 callsubr
          rrcurveto
          513 -898.9900054931641 -80 callsubr
          hintmask 01110000
          -105 callsubr
          hintmask 10101000
          98 221 rlineto
          endchar
        </CharString>
        <CharString name="Gcaron">
          88 callsubr
          1327.3600006103516 204 callgsubr
          -42 callgsubr
          1065 hintmask 10101000
          10 callsubr
          396 -902 -80 callsubr
          hintmask 01110000
          -105 callsubr
          hintmask 10101000
          98 221 rlineto
          endchar
        </CharString>
        <CharString name="Gcircumflex">
          88 callsubr
          -42 callgsubr
          1065 hintmask 10010000
          431.97999572753906 165 callgsubr
          84.99000549316406 -71 89 -32.99000549316406 -33 callgsubr
          17 58 83 17.990005493164062 22 callsubr
          -15 -19 1 -19 hhcurveto
          -31 callgsubr
          -143 -44 callsubr
          -34 -83 callgsubr
          hvcurveto
          -57 -92 -38 87 callsubr
          43 callgsubr
          33 callgsubr
          716 -889 -80 callsubr
          hintmask 01100000
          -105 callsubr
          hintmask 10010000
          98 221 rlineto
          endchar
        </CharString>
        <CharString name="Gcommaaccent">
          88 callsubr
          -42 callgsubr
          1065 hintmask 10010000
          1147.990005493164 719.9900054931641 -80 callsubr
          hintmask 01100000
          -105 callsubr
          hintmask 10010000
          98 221 rlineto
          -603 -810.9799957275391 219 callsubr
          174.97999572753906 192 50 93 rlinecurve
          -50 86 -220 -67 callgsubr
          -113.99000549316406 -12.990005493164062 rrcurveto
          endchar
        </CharString>
        <CharString name="Gdotaccent">
          88 callsubr
          -42 callgsubr
          1065 hintmask 10010000
          60 callsubr
          512 -845.9900054931641 -80 callsubr
          hintmask 01100000
          -105 callsubr
          hintmask 10010000
          98 221 rlineto
          endchar
        </CharString>
        <CharString name="Gtilde">
          88 callsubr
          -42 callgsubr
          1065 hintmask 10010000
          462.99000549316406 1745 rmoveto
          -53 69 153 -87 -64 callsubr
          hhcurveto
          142 125.99000549316406 198.99000549316406 130 callsubr
          24 hvcurveto
          89 callsubr
          87 -134 -20 callsubr
          rlineto
          32 -74.02000427246094 -138 92 callgsubr
          -88 hhcurveto
          227 callgsubr
          296 callsubr
          -24 hvcurveto
          110 -80 140 68 callgsubr
          rlineto
          685 -1025 -80 callsubr
          hintmask 01100000
          -105 callsubr
          hintmask 10010000
          98 221 rlineto
          endchar
        </CharString>
        <CharString name="H">
          242 callgsubr
          1274 319 -60 callgsubr
        </CharString>
        <CharString name="HT">
          endchar
        </CharString>
        <CharString name="Hbar">
          232 -20 337.50999450683594 673.4700012207031 235.49000549316406 -222.47999572753906 271.00999450683594 hstemhm
          838.9799957275391 322 167 26.92999267578125 hintmask 00000000
          hintmask 10101000
          1309 1008.9900054931641 rmoveto
          45 88 22 107 -48 76 -127 -10.020004272460938 rcurveline
          15.020004272460938 220 rlineto
          29 -47 -59 11.020004272460938 -63 hhcurveto
          hintmask 11011000
          -149 -129 -70 callsubr
          -57 -39 hvcurveto
          7 -50 -82 callgsubr
          -56 29 callgsubr
          -59 -213 -17 rcurveline
          23 271.00999450683594 rlineto
          29 -48 -61 callsubr
          11 -63 hhcurveto
          -149 -44 callgsubr
          12 130 callgsubr
          12 188 callsubr
          -72 callsubr
          -84.99000549316406 -103 -18 rcurveline
          -19 -65 8.979995727539062 -35 callsubr
          24 -65 68 callgsubr
          -3 rcurveline
          22 66 callgsubr
          -50 callgsubr
          -118.00999450683594 32 -10 callsubr
          -64 callgsubr
          -136 -3 rlineto
          hintmask 10111000
          46 688 rlineto
          hintmask 10101000
          66.00999450683594 2 45 -86 callsubr
          14 1 rrcurveto
          hintmask 11001000
          -471.02000427246094 -165 rmoveto
          -86 -8.990005493164062 -151 -20.009994506835938 -94 -15 17 191 rcurveline
          93 1 -37 callgsubr
          1 203 callgsubr
          -86 callsubr
          11 -51 11.020004272460938 -51 11.990005493164062 -49 rrcurveto
          endchar
        </CharString>
        <CharString name="Hcircumflex">
          242 callgsubr
          240 callsubr
          1608.990005493164 rmoveto
          55 31 56 10 callgsubr
          806.0099945068359 -1290 -60 callgsubr
        </CharString>
        <CharString name="I">
          -450 -20 43 hstem
          250 callgsubr
          484 vstem
          250 callgsubr
          1398.990005493164 rmoveto
          -97 callgsubr
          -149 -44 callgsubr
          endchar
        </CharString>
        <CharString name="IJ">
          549 -20 43 hstem
          672.9900054931641 194 callgsubr
          vstem
          1448 1152.979995727539 -78 callgsubr
        </CharString>
        <CharString name="IJ_acutecomb">
          549 -20 43 hstem
          672.9900054931641 194 callgsubr
          vstem
          278 callgsubr
          2019.979995727539 rmoveto
          90 callsubr
          297 callgsubr
          -63.02000427246094 116 89 callsubr
          65 rrcurveto
          973 -867 -78 callgsubr
        </CharString>
        <CharString name="Iacute">
          -450 -20 43 hstem
          250 callgsubr
          573 vstem
          87 300 callgsubr
          170.99000549316406 218 callsubr
          10 -53 callsubr
          -149 -79.00999450683594 -233 -52 -122 22.020004272460938 -34.02000427246094 -82 callsubr
          -21 255 callsubr
          -5.0200042724609375 -387.00999450683594 rmoveto
          -97 callgsubr
          -149 -44 callgsubr
          endchar
        </CharString>
        <CharString name="Ibreve">
          -450 -20 43 1555.0199890136719 -15 callgsubr
          -62 callsubr
          751.9799957275391 vstem
          328.99000549316406 112 callsubr
          -33 256 callgsubr
          -1 callgsubr
          60 202 callgsubr
          252 callgsubr
          165 callsubr
          1 -77 callsubr
          hhcurveto
          -52 callsubr
          95.00999450683594 186 callgsubr
          -247 -220 rmoveto
          -97 callgsubr
          -149 -44 callgsubr
          endchar
        </CharString>
        <CharString name="Icircumflex">
          -450 -20 43 hstem
          -51 callsubr
          709.9799957275391 vstem
          125.99000549316406 182 callsubr
          56 -15 callsubr
          59.99000549316406 69 81.02000427246094 -30 callsubr
          -89 -143 -44 callsubr
          -34 -38 hvcurveto
          -57 -92 -83 callgsubr
          270 callgsubr
          26.970001220703125 -49 49 -62 callsubr
          65 -29 rrcurveto
          -44 -210 rmoveto
          -97 callgsubr
          -149 -44 callgsubr
          endchar
        </CharString>
        <CharString name="Idieresis">
          -450 -20 43 hstem
          -99 289 callgsubr
          vstem
          -99 197 callgsubr
          45 callgsubr
          46 30.979995727539062 225 callgsubr
          152 -9 callgsubr
          -169 35.99000549316406 hvcurveto
          -39 162 callgsubr
          69 callgsubr
          236 callsubr
          122 153 -47.99000549316406 -169 36 40 callsubr
          208 callsubr
          32 callsubr
          -287 -332 rmoveto
          -97 callgsubr
          -149 -44 callgsubr
          endchar
        </CharString>
        <CharString name="Idotaccent">
          -450 -20 43 hstem
          250 callgsubr
          484 vstem
          112.99000549316406 1710.979995727539 7 callgsubr
          -83 -36 208 callsubr
          -49 callgsubr
          -31 -312 rmoveto
          -97 callgsubr
          -149 -44 callgsubr
          endchar
        </CharString>
        <CharString name="Igrave">
          -450 -20 43 hstem
          -23 588.9799957275391 vstem
          -23 293 callsubr
          62.99000549316406 116 107 65 128.99000549316406 -46 callsubr
          88 -54 171 -84.99000549316406 4 -63 -34 1 callsubr
          104.97999572753906 -339 rmoveto
          -97 callgsubr
          -149 -44 callgsubr
          endchar
        </CharString>
        <CharString name="Imacron">
          -450 -20 43 1633.990005493164 264 hstem
          -10.399993896484375 707.4799957275391 vstem
          -58 callsubr
          1914 rmoveto
          -37.99000549316406 -65 -18 -98 10 61 callgsubr
          43.99000549316406 -515.0099945068359 rmoveto
          -97 callgsubr
          -149 -44 callgsubr
          endchar
        </CharString>
        <CharString name="Iogonek">
          -450 -437.99000549316406 43 386.99000549316406 43 hstem
          238 callsubr
          509 vstem
          537.9900054931641 -116 rmoveto
          -195.99000549316406 58 callgsubr
          -28 callgsubr
          13 39 72 129 77 60 38.970001220703125 rlinecurve
          1 0 1 1 hhcurveto
          -11.020004272460938 189 -35 callsubr
          159 callsubr
          -34 163 -64 callsubr
          906.0200042724609 156 callgsubr
          -49 -143 -83 callgsubr
          -255 -10 -196 33 -32 47 -24 60 -83 callsubr
          rrcurveto
          -93 -57 -104.02000427246094 -78.99000549316406 -81 vvcurveto
          109 callsubr
          188 callgsubr
          -118 97 116 79 64 131 -33 callgsubr
          vhcurveto
          -47 127 rlineto
          endchar
        </CharString>
        <CharString name="Itilde">
          -450 -20 43 1541.0299987792969 -15 callgsubr
          -93 841.9900054931641 vstem
          157 1745 rmoveto
          -140 178 callsubr
          -109.99000549316406 305 callgsubr
          24 134.97999572753906 86 callgsubr
          134 277 callsubr
          107 -87 rlineto
          100 callsubr
          -24 -126 -198.99000549316406 -142 224 callsubr
          -69 hvcurveto
          -75.02000427246094 -346.00999450683594 rmoveto
          -97 callgsubr
          -149 -44 callgsubr
          endchar
        </CharString>
        <CharString name="J">
          -117 -160 1708.990005493164 242 callsubr
          781.9900054931641 1152.979995727539 -63 callgsubr
        </CharString>
        <CharString name="Jcircumflex">
          -117 -160 2167 242 callsubr
          288.99000549316406 182 callsubr
          56 -15 callsubr
          59.99000549316406 69 81.02000427246094 -30 callsubr
          -89 -143 -35 callgsubr
          27 -49 49 -62 callsubr
          65 -29 rrcurveto
          493 -456.00999450683594 -63 callgsubr
        </CharString>
        <CharString name="K">
          -79 callgsubr
          endchar
        </CharString>
        <CharString name="Kcommaaccent">
          -79 callgsubr
          -638 -522.9900054931641 rmoveto
          -68 -389 141 callsubr
          -57 85.00999450683594 74 174.99000549316406 192 50 93 rlinecurve
          -50 86 -220 -72 callsubr
          -113.99000549316406 -13 rrcurveto
          endchar
        </CharString>
        <CharString name="L">
          26 -20 43 298 callsubr
          1056.009994506836 vstem
          1078.990005493164 624.9900054931641 rmoveto
          -183.99000549316406 24 -96 callgsubr
          endchar
        </CharString>
        <CharString name="LF">
          endchar
        </CharString>
        <CharString name="Lacute">
          26 -20 43 298 callsubr
          1056.009994506836 vstem
          750 139 callsubr
          -10.020004272460938 -6 callsubr
          -63 260 callgsubr
          -171 -85 -27 callgsubr
          -64 -33 callsubr
          -56 34 -68 callsubr
          122 -7 callsubr
          233 52 149 154 callgsubr
          328.99000549316406 -1113 rmoveto
          -183.99000549316406 24 -96 callgsubr
          endchar
        </CharString>
        <CharString name="Lcaron">
          26 135 callsubr
          298 callsubr
          1056.009994506836 vstem
          541 30 callsubr
          -68 63 160 callsubr
          280 callsubr
          -69.02000427246094 257 callsubr
          101 callgsubr
          254 callgsubr
          -4.0200042724609375 -73.00999450683594 225 55 callsubr
          537.9900054931641 -997.0099945068359 rmoveto
          -183.99000549316406 24 -96 callgsubr
          endchar
        </CharString>
        <CharString name="Lcommaaccent">
          26 -20 43 298 callsubr
          1056.009994506836 vstem
          1078.990005493164 624.9900054931641 rmoveto
          -183.99000549316406 24 -96 callgsubr
          -636 -715.9799957275391 rmoveto
          -68 -389.02000427246094 142 -57 84.99000549316406 74.02000427246094 175 192 49.99000549316406 93 rlinecurve
          -32 callsubr
          86 -220 -67 callgsubr
          228 callsubr
          -12.990005493164062 rrcurveto
          endchar
        </CharString>
        <CharString name="Ldot">
          26 -20 43 1505.990005493164 152 hstem
          635.9799957275391 18 vstem
          639 1489 rmoveto
          -6 -65 -14 callgsubr
          13 7 56 callsubr
          6 -72 callsubr
          rlinecurve
          182 callgsubr
          -25 -81 -18 160 callgsubr
          129 callsubr
          -31 callgsubr
          rrcurveto
          35 59.99000549316406 87 29 93 hhcurveto
          131 callgsubr
          50 -11 -29 48 hvcurveto
          439.99000549316406 -864.0099945068359 192 callgsubr
          99 1015 -49 -77 -88 -69 -71 -31 rlinecurve
          -97 73 callgsubr
          -71 callgsubr
          11 28 10 24 -27 callgsubr
          64 callgsubr
          -37 65 callsubr
          -27 -24 -28 callgsubr
          -21 34 -200.99000549316406 0 -300.00999450683594 80 -461 rrcurveto
          -33 hlineto
          -34 -36 -4 -10 -27 hvcurveto
          -89 -124 52 callsubr
          -112.99000549316406 110 -166 83.99000549316406 107 callgsubr
          78 73.99000549316406 52 89.00999450683594 rrcurveto
          -47 callsubr
          98 136.99000549316406 -91.99000549316406 123 hhcurveto
          202.02000427246094 47 200.99000549316406 188 -56 callsubr
          -15.009994506835938 316 callsubr
          endchar
        </CharString>
        <CharString name="Lslash">
          26 -20 43 hstem
          248.99000549316406 300.47999572753906 301.50999450683594 46.80999755859375 vstem
          1078.990005493164 624.9900054931641 192 callgsubr
          -25 callsubr
          317.00999450683594 326 140 15.009994506835938 92 -7 34 callgsubr
          -48 29 rlinecurve
          -261 -132 49 509.00999450683594 rlineto
          29 -48 -50 11 -63.02000427246094 hhcurveto
          -148.99000549316406 -44 callgsubr
          209 callgsubr
          173 callgsubr
          6 -194 -25 callsubr
          -268 -161 -81 rcurveline
          6 -62 25 -85.00999450683594 -23 callgsubr
          -24 114.02000427246094 49 rcurveline
          7 -49 -14 callgsubr
          -52 10 -53 rrcurveto
          -33 hlineto
          -34 -36 -4 -10 -27 hvcurveto
          -89 -124 52 callsubr
          -112.99000549316406 110 -166 83.99000549316406 107 callgsubr
          78 73.99000549316406 52 89.00999450683594 rrcurveto
          -47 callsubr
          98 136.99000549316406 -91.99000549316406 123 hhcurveto
          202.02000427246094 47 200.99000549316406 188 -56 callsubr
          -15.009994506835938 316 callsubr
          endchar
        </CharString>
        <CharString name="M">
          133 callgsubr
          1797 333.99000549316406 -81 callsubr
        </CharString>
        <CharString name="N">
          255 -20 38 callgsubr
          hintmask 10100000
          1029.979995727539 390.97999572753906 -38 callsubr
          hintmask 01100000
          -100 callsubr
          hintmask 10100000
          285 callsubr
        </CharString>
        <CharString name="NULL">
          endchar
        </CharString>
        <CharString name="Nacute">
          255 -20 38 callgsubr
          hintmask 10100000
          479.99000549316406 274 callsubr
          87.97999572753906 -29 callsubr
          -9 64 rrcurveto
          550 -1395.020004272461 -38 callsubr
          hintmask 01100000
          -100 callsubr
          hintmask 10100000
          285 callsubr
        </CharString>
        <CharString name="Ncaron">
          314 callgsubr
          1308.8400115966797 204 callgsubr
          116 callgsubr
          hintmask 10110000
          838.9799957275391 1622 rmoveto
          307 callsubr
          166 callsubr
          -50 104 callsubr
          -91 7 -131 -132 -54 callgsubr
          -70 callsubr
          292 callgsubr
          18 callsubr
          191 -1231.020004272461 -38 callsubr
          hintmask 01110000
          -100 callsubr
          hintmask 10110000
          285 callsubr
        </CharString>
        <CharString name="Ncommaaccent">
          255 -20 38 callgsubr
          hintmask 10100000
          1029.979995727539 390.97999572753906 -38 callsubr
          hintmask 01100000
          -100 callsubr
          hintmask 10100000
          187 callgsubr
          -48 callsubr
          rlineto
          -570.9900054931641 -870.9900054931641 rmoveto
          68 389.02000427246094 207 callsubr
          56 callsubr
          220.02000427246094 -83 callsubr
          50 -86 rlinecurve
          -50 -93 -175 -192 -85.00999450683594 -74.02000427246094 227 callgsubr
          57 rcurveline
          endchar
        </CharString>
        <CharString name="Ntilde">
          314 callgsubr
          1263.520004272461 40.96000671386719 116 callgsubr
          hintmask 10110000
          549.9900054931641 148 callgsubr
          24 135 227 callsubr
          141 callsubr
          106 callsubr
          74.02000427246094 hvcurveto
          134 277 callsubr
          -17 callsubr
          -87 190 callgsubr
          479.99000549316406 -1354.020004272461 -38 callsubr
          hintmask 01110000
          -100 callsubr
          hintmask 10110000
          285 callsubr
        </CharString>
        <CharString name="O">
          175 -75 callsubr
          1569.9700012207031 20 callgsubr
          1172.990005493164 1320.979995727539 -105 callgsubr
        </CharString>
        <CharString name="OE">
          681 -19 329.00999450683594 hstem
          -57 callsubr
          390 316.97999572753906 383.02000427246094 vstem
          1693 278 callgsubr
          rmoveto
          -180.02000427246094 14.990005493164062 -81.99000549316406 -189.99000549316406 -308.02000427246094 -62 callgsubr
          -72 callsubr
          203 callgsubr
          -72 callsubr
          121 11 120 rlinecurve
          -51 104 147 -36 callgsubr
          119.99000549316406 hhcurveto
          -62 callgsubr
          -40 callsubr
          -68 callgsubr
          2 141 callgsubr
          23 25 28 83 86 vvcurveto
          54 123 callsubr
          -29 44 vhcurveto
          -138 -29 158 callsubr
          -23 -180 81 callsubr
          rrcurveto
          5 78 3 48 callsubr
          53 vvcurveto
          39.02000427246094 -1 -77 callsubr
          -1 29 vhcurveto
          157 -62 callsubr
          131.02000427246094 -29 -17 callsubr
          -12 rrcurveto
          66 49.99000549316406 41 100 186 callsubr
          -369 -94 -187.99000549316406 129 callsubr
          rlineto
          74 -141 -192 55.99000549316406 -70 189 callsubr
          40 -493 37 -239 vhcurveto
          57 callsubr
          -17 callgsubr
          292 -78.99000549316406 149.02000427246094 -8.990005493164062 48 callsubr
          6.9900054931640625 66.00999450683594 25 93 47 7 4 -14 callgsubr
          4 8 4 rrcurveto
          -58 171 174 -37 callsubr
          177.99000549316406 hhcurveto
          164 87 104 153.99000549316406 89 -17 203 callgsubr
          -21 53 callgsubr
          hvcurveto
          -902 -247 rmoveto
          -62 29 callgsubr
          -71 14.990005493164062 -19 callgsubr
          46 -55 32 rlinecurve
          -11 112.99000549316406 -54 callgsubr
          168 174 vvcurveto
          149 3.9900054931640625 150 -70 callgsubr
          89.00999450683594 vhcurveto
          71 35 214 34 callsubr
          rlineto
          12 -127 -14 callgsubr
          33 callsubr
          -54 callgsubr
          -163.99000549316406 -7.9900054931640625 -74.02000427246094 vhcurveto
          endchar
        </CharString>
        <CharString name="Oacute">
          175 -75 callsubr
          2040.9700012207031 20 callgsubr
          278 callsubr
          1786 rmoveto
          171 218 callsubr
          29 callsubr
          78 callsubr
          -75 callsubr
          56 -41 callgsubr
          64 rrcurveto
          771.0099945068359 -465.02000427246094 -105 callgsubr
        </CharString>
        <CharString name="Obreve">
          175 1578.0199890136719 40.96000671386719 20 callgsubr
          643.9900054931641 1618.979995727539 rmoveto
          -163 -51 callgsubr
          -177 72.99000549316406 -32.99000549316406 256 callgsubr
          95 60 35 callgsubr
          252 callgsubr
          rrcurveto
          -139 -15 callsubr
          239 callsubr
          1 32.02000427246094 hhcurveto
          -52 callsubr
          95 18 101 84.00999450683594 226 callgsubr
          -171 -120 -164.99000549316406 -48 callsubr
          rlinecurve
          529 -298 -105 callgsubr
        </CharString>
        <CharString name="Ocircumflex">
          175 -75 callsubr
          2027.990005493164 20 callgsubr
          441 102 callgsubr
          67.02000427246094 -7 callgsubr
          -15.020004272460938 -18.979995727539062 1 129 callgsubr
          hhcurveto
          -89 173 callgsubr
          -35 callgsubr
          -52 callsubr
          -49 49 -62 callsubr
          65 -29 rrcurveto
          732 -288.00999450683594 -105 callgsubr
        </CharString>
        <CharString name="Odieresis">
          175 -75 callsubr
          2040.9700012207031 20 callgsubr
          215.97999572753906 1730.990005493164 rmoveto
          131 callsubr
          247 callsubr
          123 151.97999572753906 -47.99000549316406 -169 36 40 callsubr
          -97 153 callsubr
          -64 callsubr
          -18 61 rrcurveto
          252 callsubr
          hmoveto
          57 142 45 callgsubr
          46 -25 callsubr
          236 callsubr
          122 153 134 callsubr
          -81 -88.99000549316406 213 callsubr
          -97.02000427246094 32 callsubr
          489 -410.00999450683594 -105 callgsubr
        </CharString>
        <CharString name="Ograve">
          175 -75 callsubr
          2040.9700012207031 20 callgsubr
          291.97999572753906 139 callsubr
          29 callgsubr
          -6 callsubr
          63 116 -17 callsubr
          65 129 -46 callsubr
          88 -54 171 -84.99000549316406 3.9900054931640625 -63 -34 -62.02000427246094 -34 -68 callsubr
          -122 -7 callsubr
          -233 52 -149.02000427246094 154 callgsubr
          881.0099945068359 -417.00999450683594 -105 callgsubr
        </CharString>
        <CharString name="Ohungarumlaut">
          175 1557.0299987792969 40.96000671386719 20 callgsubr
          317.99000549316406 134 callgsubr
          -62 callsubr
          -82 callgsubr
          -82 61 -18 48 rrcurveto
          403.99000549316406 -10.020004272460938 rmoveto
          209 314 rlineto
          122.02000427246094 91 -59 -103 62 hvcurveto
          -48 callgsubr
          -126 -180 158 callsubr
          -89 129 callsubr
          -67.02000427246094 -67 callgsubr
          -41 callsubr
          66 -20.009994506835938 -58 callsubr
          rrcurveto
          451.00999450683594 -385 -105 callgsubr
        </CharString>
        <CharString name="Omacron">
          175 1656.990005493164 264 20 callgsubr
          352.99000549316406 1914 rmoveto
          -38 -65 -18 -98 29 callgsubr
          192 callsubr
          820 -593.0200042724609 -105 callgsubr
        </CharString>
        <CharString name="Oslash">
          181 -257 2073.990005493164 20 callgsubr
          1172.990005493164 275 callsubr
          -24 29 -41 29 -49 250 callsubr
          128 247.99000549316406 rcurveline
          -32 callsubr
          -34 callgsubr
          -58 -77 callsubr
          -99 28 -147 -315 rcurveline
          29 -87 -78.99000549316406 18 -39 hhcurveto
          -69.02000427246094 -345.99000549316406 -72 callgsubr
          46 -493 37 -239 vhcurveto
          22 -36 callgsubr
          93 callgsubr
          -19 41 -19 -103 -278.97999572753906 rcurveline
          48.99000549316406 -81 77 17.990005493164062 202 callgsubr
          -4 115 270.97999572753906 rcurveline
          74 -18.979995727539062 72 -13 -66 callsubr
          -76 callgsubr
          72.00999450683594 6.9900054931640625 66 25 92 47 62 -77 callsubr
          95 42 14.990005493164062 58 rrcurveto
          38.02000427246094 135 49.99000549316406 516 218.99000549316406 vvcurveto
          123 -7 57 -8.990005493164062 81 vhcurveto
          -387.00999450683594 -1041 rmoveto
          -41 callsubr
          -41.99000549316406 -70 14.990005493164062 -100 46 -61 callsubr
          32 rlinecurve
          -10.020004272460938 112.99000549316406 -54 callgsubr
          168 174 vvcurveto
          -27 callsubr
          69 35 211 34 callsubr
          rlineto
          12 -127 8 33 callsubr
          -3 -111.99000549316406 -8 -74.02000427246094 vhcurveto
          endchar
        </CharString>
        <CharString name="Otilde">
          175 1564.0299987792969 40.96000671386719 20 callgsubr
          471.97999572753906 148 callgsubr
          24 135 227 callsubr
          142 hhcurveto
          87.97999572753906 138.02000427246094 189 callgsubr
          237 callsubr
          303 callgsubr
          -78 -152.99000549316406 87 53 -69.02000427246094 hvcurveto
          701.0099945068359 -424.02000427246094 -105 callgsubr
        </CharString>
        <CharString name="P">
          161 callsubr
          1218.990005493164 1403.990005493164 -69 callgsubr
        </CharString>
        <CharString name="Q">
          175 -445.99000549316406 1994.9700012207031 20 callgsubr
          627 -123 rmoveto
          -48 callsubr
          29 3 12 270.00999450683594 105 111.97999572753906 238 callsubr
          rlinecurve
          44.02000427246094 209 callgsubr
          40 30 -82 callgsubr
          36 rrcurveto
          38.02000427246094 135 49.99000549316406 516 218.99000549316406 vvcurveto
          123 -7 57 -8.990005493164062 81 vhcurveto
          115.02000427246094 -95 -351.99000549316406 112.99000549316406 -98 hhcurveto
          -69.02000427246094 -345.99000549316406 -72 callgsubr
          46 -493 37 -239 vhcurveto
          65 -59 172 -83 callgsubr
          145 -20.009994506835938 -146 -98.97999572753906 rcurveline
          -61 callsubr
          48.99000549316406 -53 -7.9900054931640625 119 callgsubr
          -23 -9 callgsubr
          -26 rlinecurve
          -6 -135 50 -144 88 -54 48 callsubr
          5.0200042724609375 50 -58 callsubr
          -58 callsubr
          49 179.02000427246094 92 callsubr
          246.99000549316406 -9 callgsubr
          101 -12 -67 callgsubr
          4 -27 callgsubr
          8 5 10 82 57 -58 callgsubr
          191 -40 100 -108 -14 -270 -21 -171.99000549316406 -12 rrcurveto
          -141 908.9799957275391 rmoveto
          -27 callsubr
          69 35 211 34 callsubr
          rlineto
          12 -127 8 33 callsubr
          -3 -111.99000549316406 -8 -74.02000427246094 vhcurveto
          -41 callsubr
          -41.99000549316406 -70 14.990005493164062 -100 46 -61 callsubr
          32 rlinecurve
          -10.020004272460938 112.99000549316406 -54 callgsubr
          168 174 vvcurveto
          endchar
        </CharString>
        <CharString name="R">
          48 callgsubr
          1240.990005493164 290 callgsubr
          150 callsubr
          hintmask 11010000
          -98 callgsubr
          hintmask 11100000
          228 callsubr
          -34 callgsubr
          rlineto
          hintmask 11010000
          -34 callsubr
          endchar
        </CharString>
        <CharString name="RS">
          endchar
        </CharString>
        <CharString name="Racute">
          48 callgsubr
          991.9900054931641 139 callsubr
          -9.990005493164062 11 callgsubr
          148.99000549316406 35 callgsubr
          rrcurveto
          249 -1286 150 callsubr
          hintmask 11010000
          -98 callgsubr
          hintmask 11100000
          228 callsubr
          -34 callgsubr
          rlineto
          hintmask 11010000
          -34 callsubr
          endchar
        </CharString>
        <CharString name="Rcaron">
          248 -20 43 1456.979995727539 48.720001220703125 80.65000915527344 204 callgsubr
          hstemhm
          87.97999572753906 1267.020004272461 -523.4600067138672 387.44000244140625 hintmask 11110000
          782.9900054931641 30 callsubr
          -68 63 -32 callsubr
          22 rlinecurve
          82 callsubr
          98 callsubr
          179 callgsubr
          231 callsubr
          154.99000549316406 29 callsubr
          49 140 callgsubr
          458 -1170 150 callsubr
          hintmask 11101000
          -98 callgsubr
          hintmask 11110000
          228 callsubr
          -34 callgsubr
          rlineto
          hintmask 11101000
          -34 callsubr
          endchar
        </CharString>
        <CharString name="Rcommaaccent">
          48 callgsubr
          1240.990005493164 290 callgsubr
          150 callsubr
          hintmask 11010000
          -98 callgsubr
          hintmask 11100000
          228 callsubr
          -34 callgsubr
          rlineto
          hintmask 11010000
          -34 callsubr
          -200.99000549316406 -1241.990005493164 219 callsubr
          175 192 50 93 rlinecurve
          -50 86 -220.02000427246094 -67 callgsubr
          -113.99000549316406 -12.990005493164062 rrcurveto
          endchar
        </CharString>
        <CharString name="S">
          -66 -20 43 -22 callgsubr
          hintmask 00000000
          hintmask 11100000
          653.9900054931641 267.97999572753906 -94 callgsubr
        </CharString>
        <CharString name="Sacute">
          -66 -20 43 -22 callgsubr
          hintmask 11010000
          375.99000549316406 300 callgsubr
          170.99000549316406 85 88 288 callsubr
          107 -65 63 -116 29 callsubr
          4 callgsubr
          65 callsubr
          255 callsubr
          hintmask 11100000
          278 -1518.020004272461 -94 callgsubr
        </CharString>
        <CharString name="Scaron">
          -66 135 callsubr
          -22 callgsubr
          hintmask 11101000
          734.9900054931641 21 callgsubr
          hintmask 11110000
          -81 -1354.020004272461 rmoveto
          -60 -35 callsubr
          -128.99000549316406 88 -155 78.99000549316406 -162 12 rlinecurve
          -16 -39 -63 callsubr
          -136 121 -210 -10 -1 518 -57.97999572753906 -10 -86 callsubr
          105 43.99000549316406 80 68.02000427246094 76 76 22 70 52 192.99000549316406 -8.990005493164062 187 callsubr
          -116 170 -351 238 -107.99000549316406 62 -58 callsubr
          210 rcurveline
          13 hlineto
          hintmask 11101000
          122 66 callgsubr
          174 -79.02000427246094 91 -19 55 43 callgsubr
          139 183.99000549316406 -64 254 -320 -15 rcurveline
          -41 -62 callgsubr
          -116 -58 callgsubr
          -72.99000549316406 22 76 callsubr
          -64 -121 -86 -10 callsubr
          -154.99000549316406 12 -115.02000427246094 -14 callgsubr
          -258.99000549316406 24 -91 rrcurveto
          hintmask 11110000
          21 callsubr
        </CharString>
        <CharString name="Scedilla">
          -66 212 callgsubr
          147.010009765625 43 -22 callgsubr
          hintmask 11101000
          418 997.9900054931641 rmoveto
          -58 callsubr
          210 rlineto
          13 hlineto
          122 66 callgsubr
          174 -79.02000427246094 91 -19 55 43 callgsubr
          139 183.99000549316406 -64 254 -320 -15 rcurveline
          -41 -62 callgsubr
          -116 -58 callgsubr
          -72.99000549316406 22 76 callsubr
          -64 -121 -86 -10 callsubr
          -154.99000549316406 12 -115.02000427246094 -14 callgsubr
          -258.99000549316406 24 -91 rrcurveto
          hintmask 11110000
          -13 callsubr
          -60 -35 callsubr
          rcurveline
          -128.99000549316406 88 -155 78.99000549316406 -162 12 -16 -39 -63 callsubr
          -136 121 -210 -6.9900054931640625 -1 232 -4 callgsubr
          150 -16.990005493164062 66.00999450683594 -147 84 callgsubr
          -82 callgsubr
          hvcurveto
          124.00999450683594 42 109 239 callsubr
          30 116 -104 163 rcurveline
          59 39 52 46 49.99000549316406 50 22 70 52 192.99000549316406 -8.990005493164062 187 callsubr
          rrcurveto
          hintmask 11101000
          -116 170 -351 238 -107.99000549316406 62 rrcurveto
          endchar
        </CharString>
        <CharString name="Scircumflex">
          -66 -20 43 -22 callgsubr
          hintmask 11010000
          414.99000549316406 128 callgsubr
          84.99000549316406 -71 89.00999450683594 -32.99000549316406 66.99000549316406 17 58 83 18 45 -208 132 callgsubr
          49 callsubr
          71 callsubr
          -18 callgsubr
          33 callgsubr
          hintmask 11100000
          239 -1341.009994506836 -94 callgsubr
        </CharString>
        <CharString name="Scommaaccent">
          -66 101 callgsubr
          70.97999572753906 0.010009765625 43 -22 callgsubr
          hintmask 00000000
          hintmask 10110000
          653.9900054931641 267.97999572753906 rmoveto
          -60 -35 callsubr
          -128.99000549316406 88 -155 78.99000549316406 -162 12 rlinecurve
          -16 -39 -63 callsubr
          -136 121 -210 -10 -1 518 -57.97999572753906 -10 -86 callsubr
          105 43.99000549316406 80 68.02000427246094 76 76 22 70 52 192.99000549316406 -8.990005493164062 187 callsubr
          -116 170 -351 238 -107.99000549316406 62 -58 callsubr
          210 rcurveline
          13 hlineto
          hintmask 01101000
          122 66 callgsubr
          174 -79.02000427246094 91 -19 55 43 callgsubr
          139 183.99000549316406 -64 254 -320 -15 rcurveline
          -41 -62 callgsubr
          -116 -58 callgsubr
          -72.99000549316406 22 76 callsubr
          -64 -121 -86 -10 callsubr
          -154.99000549316406 12 -115.02000427246094 -14 callgsubr
          -258.99000549316406 24 -91 rrcurveto
          hintmask 01110000
          177 callsubr
          350.99000549316406 -174.02000427246094 127 -35 rrcurveto
          hintmask 10110000
          17 -58 -8.990005493164062 -68 -12 -60 rrcurveto
          -226 -747.9900054931641 rmoveto
          67.99000549316406 389.02000427246094 114.02000427246094 56 callsubr
          220 -83 callsubr
          49.99000549316406 -86 rlinecurve
          -32 callsubr
          -93 -175 -192 -85 -74.02000427246094 -142 57 rcurveline
          endchar
        </CharString>
        <CharString name="T">
          -13 -75 callsubr
          1569.9700012207031 hstem
          175 callsubr
          vstem
          1053.979995727539 289 callsubr
          -91 callgsubr
          endchar
        </CharString>
        <CharString name="Tbar">
          -13 568.9900054931641 309.49000549316406 -293.49000549316406 257.52000427246094 hstemhm
          -27.399993896484375 1191.8699951171875 -737.4900054931641 337.50999450683594 hintmask 01100000
          1060.990005493164 289 callsubr
          rmoveto
          132 90.00999450683594 -27 callgsubr
          305.99000549316406 -132 69 -348.02000427246094 -111 rcurveline
          -438.99000549316406 111 -95 -8.990005493164062 -118 -60 -70.97999572753906 -87 rlinecurve
          -59 -105 52 -217.99000549316406 33.99000549316406 -103.02000427246094 rrcurveto
          hintmask 01010000
          79 -34 75.02000427246094 6 79 27 41 281 rcurveline
          130 -33 34 -366 -156 -11 160 callgsubr
          -47 callsubr
          -22 -41 callsubr
          12 -113 rlinecurve
          86 -3 78 -76 callgsubr
          70 -2 -21 -123.99000549316406 -48 -110 10 -116.02000427246094 rrcurveto
          -154.99000549316406 -72 callsubr
          213 callgsubr
          130.99000549316406 151 209.97999572753906 94 21 hvcurveto
          63 callgsubr
          132 -220 -53 callsubr
          rlineto
          hintmask 10010000
          -17 255 83.99000549316406 -1 59 0 35 -80 callgsubr
          rlinecurve
          54 106 -82 callsubr
          113.00999450683594 -23 -57 callsubr
          -216.99000549316406 -15 rcurveline
          28 271 rlineto
          hintmask 01100000
          -33 75 116 -25 57 hhcurveto
          endchar
        </CharString>
        <CharString name="Tcaron">
          -13 245 callsubr
          175 callsubr
          hintmask 00000000
          hintmask 11000000
          10 callsubr
          302 -538.0099945068359 -91 callgsubr
          endchar
        </CharString>
        <CharString name="Thorn">
          148 -20 43 216.97999572753906 228.89999389648438 hstem
          833.0599975585938 385.9199981689453 vstem
          1218.990005493164 1252.990005493164 rmoveto
          -120 -34 callgsubr
          -162.02000427246094 -23 callgsubr
          -75.99000549316406 -1 -58.02000427246094 -0.9900054931640625 -51 -10.020004272460938 200 callgsubr
          -231 -385.99000549316406 rcurveline
          -31 -82 callgsubr
          -73 callgsubr
          477 rlineto
          36 -57 -56 13 -57 hhcurveto
          -106 -107.00999450683594 -56.02000427246094 -80 -59 hvcurveto
          -8.990005493164062 -37 76 -685 55.99000549316406 -163 -30 -136.99000549316406 -21 -170 -7 -139 rrcurveto
          -50 53 86 -74 callsubr
          184 callsubr
          71 53 11.020004272460938 27.970001220703125 -23 callgsubr
          hvcurveto
          -6 130 callsubr
          -4 callgsubr
          133 -44 callsubr
          172 callsubr
          116 -59 158 -87 61 1 80 1 138 127 43 51 83.99000549316406 232.02000427246094 36 382 -17 220 rrcurveto
          -424 -766 rmoveto
          -16 -93 -222 291 -53 29 70 99 135.99000549316406 -43 callgsubr
          70 68.02000427246094 47 -14 callsubr
          rcurveline
          17 -163 -21 172 callgsubr
          -28 -158 rrcurveto
          endchar
        </CharString>
        <CharString name="U">
          156 -75 callsubr
          1569.9700012207031 -26 callgsubr
          1187.979995727539 1256.979995727539 -107 callsubr
        </CharString>
        <CharString name="US">
          endchar
        </CharString>
        <CharString name="Uacute">
          156 -75 callsubr
          2040.9700012207031 -26 callgsubr
          962.9900054931641 1737.990005493164 rmoveto
          -10 11 callgsubr
          149 154 callgsubr
          292 callgsubr
          -481.00999450683594 -107 callsubr
        </CharString>
        <CharString name="Ubreve">
          156 1618.979995727539 262 -26 callgsubr
          636.9900054931641 15 callgsubr
          551 -362 -107 callsubr
        </CharString>
        <CharString name="Ucircumflex">
          156 -75 callsubr
          2027.990005493164 -26 callgsubr
          433.99000549316406 -53 callgsubr
          43 callgsubr
          33 callgsubr
          753.9900054931641 -352.00999450683594 -107 callsubr
        </CharString>
        <CharString name="Udieresis">
          156 -75 callsubr
          2040.9700012207031 -26 callgsubr
          425.97999572753906 91 callgsubr
          17.979995727539062 -61 102.02000427246094 54 callgsubr
          -34 callgsubr
          63 callgsubr
          97 -6 rrcurveto
          293.99000549316406 -329.00999450683594 -107 callsubr
        </CharString>
        <CharString name="Ugrave">
          156 -75 callsubr
          2040.9700012207031 -26 callgsubr
          788.9900054931641 120 callsubr
          42 callsubr
          149 267 callgsubr
          93 callsubr
          -372.02000427246094 -107 callsubr
        </CharString>
        <CharString name="Uhungarumlaut">
          156 -75 callsubr
          2040.9700012207031 -26 callgsubr
          265 callgsubr
          1597.990005493164 rmoveto
          89 36 157 105 61 -43 callgsubr
          rrcurveto
          109 -61 -92 53 -123 hhcurveto
          -175 -303.97999572753906 18 -48 82 -61 43.99000549316406 -8.990005493164062 rlinecurve
          408 -10 rmoveto
          89 -3 callgsubr
          180 251 callgsubr
          -58 callgsubr
          126 rrcurveto
          103 -62 101 callgsubr
          59 -122 hhcurveto
          -209 -314 -40 callsubr
          -83 callgsubr
          61 -66 -58 callgsubr
          -83 callsubr
          rlinecurve
          325 -331.02000427246094 -107 callsubr
        </CharString>
        <CharString name="Umacron">
          156 1656.990005493164 264 -26 callgsubr
          956.9900054931641 1657 rmoveto
          45 88 -72 callsubr
          103 -19 79 callsubr
          231 -400.02000427246094 -107 callsubr
        </CharString>
        <CharString name="Uogonek">
          156 -437.99000549316406 43 383.99000549316406 43 -26 callgsubr
          1187.979995727539 1256.979995727539 rmoveto
          -5 38 138 callgsubr
          -0.9900054931640625 8 -1 9 rlinecurve
          1 vlineto
          -12 87 -121 68.02000427246094 -149 62 -68 29 callsubr
          rlinecurve
          -135 -53 -69 -128.99000549316406 -11 -20 callsubr
          164 -46 rcurveline
          12 -128 -82 callgsubr
          -292 -194.99000549316406 vvcurveto
          -20 callsubr
          -54 callgsubr
          -163.99000549316406 -14 callsubr
          -74.02000427246094 vhcurveto
          -111 -72 callsubr
          170 callgsubr
          -55 -77 callsubr
          rrcurveto
          -11 113.00999450683594 -4 187.99000549316406 174 vvcurveto
          -68 callgsubr
          388.02000427246094 25 170.99000549316406 rlineto
          -1 -1 -0.9799957275390625 -0.9799957275390625 hhcurveto
          -80 callgsubr
          -86 callsubr
          -139 106 -134 84.99000549316406 -94 12 rlinecurve
          -140 -71 -83 callgsubr
          -132 -8.979995727539062 -120 139.97999572753906 -47 rcurveline
          155 callgsubr
          0 -35 -26.990005493164062 vvcurveto
          -202.02000427246094 40 -493 -82 callsubr
          -239 vhcurveto
          74.02000427246094 -3 callsubr
          186 -66 146 -4 callgsubr
          rrcurveto
          -75 -58 -76 -75 -81 145 callsubr
          97 116 35 callgsubr
          64 131 66.99000549316406 195 callsubr
          -28 callgsubr
          13 24 44 40 70 38.02000427246094 62.970001220703125 rlinecurve
          34 13 36 17 41.97999572753906 45 callgsubr
          62.02000427246094 -77 callsubr
          101.99000549316406 42 16.020004272460938 58 124 callsubr
          135 50 516 218.99000549316406 vvcurveto
          89 -5 54 -6 132 callsubr
        </CharString>
        <CharString name="Uring">
          156 1526.979995727539 182 115 195.99000549316406 hstemhm
          132.99000549316406 390 -185.010009765625 216 158 218 -130 93 callsubr
          hintmask 00000000
          hintmask 11011000
          616.9799957275391 281 callgsubr
          30 hvcurveto
          89.99000549316406 -39 callgsubr
          hintmask 11100100
          627 -562.0099945068359 -107 callsubr
        </CharString>
        <CharString name="Utilde">
          156 -75 callsubr
          2040.9700012207031 -26 callgsubr
          465 26 callgsubr
          722.9900054931641 -488.02000427246094 -107 callsubr
        </CharString>
        <CharString name="V">
          95 -22 1572.979995727539 hstem
          -50.99000549316406 1246.979995727539 vstem
          645 343 rmoveto
          -44 callsubr
          328.99000549316406 -187 743 -29 131 callsubr
          rrcurveto
          40 -53 -63 17 -62 hhcurveto
          -132 -128 -85.02000427246094 -157 -16 hvcurveto
          174.97999572753906 -222 267 -783 -23 -61.99000549316406 -75 callsubr
          -75 -7 -99 rlinecurve
          -43 53 121 -35 callsubr
          117 hhcurveto
          103 100 -40 callsubr
          -23 callgsubr
          54 hvcurveto
          -17 187 callsubr
          81 callsubr
          -58 callgsubr
          -23 54 369.00999450683594 868 rcurveline
          -11 152 -70 181.99000549316406 -112 90.00999450683594 -144 -18 -176 -76 -60 -154.99000549316406 54 -110 68 -51.02000427246094 69.02000427246094 -58.99000549316406 -169 -739 rcurveline
          endchar
        </CharString>
        <CharString name="W">
          75 callsubr
          1620.990005493164 1549.990005493164 -101 callsubr
        </CharString>
        <CharString name="Wacute">
          75 callsubr
          662 300 callgsubr
          170.99000549316406 85 88 -29 callsubr
          -8.990005493164062 64 rrcurveto
          959 -236 -101 callsubr
        </CharString>
        <CharString name="Wcircumflex">
          75 callsubr
          700.9900054931641 165 callgsubr
          84.99000549316406 -52 callgsubr
          -15 -19 1 -19 hhcurveto
          -89 173 callgsubr
          -44 callsubr
          -34 -38.02000427246094 hvcurveto
          -57 71 callsubr
          43 callgsubr
          33 callgsubr
          920 -59 -101 callsubr
        </CharString>
        <CharString name="Wdieresis">
          75 callsubr
          476 197 callgsubr
          258 callgsubr
          57 callgsubr
          68 callsubr
          57 142 45 callgsubr
          46 31 236 callsubr
          122 142 callgsubr
          -47.99000549316406 -169 36 40 callsubr
          -97 153 callsubr
          -64 callsubr
          -18 61 rrcurveto
          677.0099945068359 -181 -101 callsubr
        </CharString>
        <CharString name="Wgrave">
          75 callsubr
          552 293 callsubr
          63 116 -56 callsubr
          65 129 -46 callsubr
          87.99000549316406 -54 171 -84.99000549316406 4 -63 -34 1 callsubr
          1069 -188 -101 callsubr
        </CharString>
        <CharString name="X">
          229 -20 43 -42 43 hstemhm
          -50 callgsubr
          1276 hintmask 01100000
          614.9900054931641 561.9900054931641 rmoveto
          6 -2 rlineto
          hintmask 10100000
          11 66 callgsubr
          39 -204 84.00999450683594 -152 rrcurveto
          -71 143 callgsubr
          84.00999450683594 -32.99000549316406 81 hhcurveto
          105.99000549316406 35 callgsubr
          36 73 40 hvcurveto
          51 92 35 292 callsubr
          20 120 -135 100 rcurveline
          -142 -126.02000427246094 -234.99000549316406 407 158.99000549316406 340.00999450683594 113 -186 109 24 84.00999450683594 48.99000549316406 59 84.00999450683594 rlinecurve
          -3.0200042724609375 160.99000549316406 -53 callsubr
          172.02000427246094 -110 99 -118.00999450683594 -5 178 callsubr
          -62 -47 100 callgsubr
          -24 -27.020004272460938 -46 -199 -74 callsubr
          -245.99000549316406 -7 279 callgsubr
          -18 157 63 callgsubr
          169 rrcurveto
          112 276 callgsubr
          -75.97999572753906 53 -115.02000427246094 hhcurveto
          -18 callsubr
          -49 -7 -51 callsubr
          -61 callsubr
          hvcurveto
          -101 -55 -65 -181.99000549316406 -17 -111 136.99000549316406 -134 rcurveline
          155.02000427246094 90 callgsubr
          187 -374 -124.00999450683594 -313 -141 142 -31 callgsubr
          -32 -65 -62 callsubr
          -54 -47 callsubr
          rlinecurve
          hintmask 01100000
          -167 24 -43 callgsubr
          -273 118 hhcurveto
          251 callgsubr
          76 140 150 183 callgsubr
          39.02000427246094 92 callgsubr
          27 28 callgsubr
          18 69 rrcurveto
          endchar
        </CharString>
        <CharString name="Y">
          113 callgsubr
          264.99000549316406 1529 -99 callsubr
        </CharString>
        <CharString name="Yacute">
          113 callgsubr
          358.99000549316406 300 callgsubr
          170.99000549316406 85 88 59 129 112 callgsubr
          65 callsubr
          255 callsubr
          -94 -257 -99 callsubr
        </CharString>
        <CharString name="Ycircumflex">
          113 callgsubr
          397.99000549316406 1608.990005493164 rmoveto
          55 31 55.99000549316406 10 callgsubr
          -133 -80 -99 callsubr
        </CharString>
        <CharString name="Ydieresis">
          113 callgsubr
          172.99000549316406 197 callgsubr
          258 callgsubr
          31 68 callsubr
          131 callsubr
          284 callgsubr
          142 callgsubr
          -47.99000549316406 -169 36 40 callsubr
          53 callsubr
          6 -102.02000427246094 -64 callsubr
          -18 61 rrcurveto
          -375.99000549316406 -202 -99 callsubr
        </CharString>
        <CharString name="Ygrave">
          113 callgsubr
          249 1737.990005493164 rmoveto
          10 260 callsubr
          87.99000549316406 -54 171 -84.99000549316406 4 -63 -34 1 callsubr
          16 -209 -99 callsubr
        </CharString>
        <CharString name="Z">
          193 callgsubr
          944.9900054931641 648.9900054931641 -95 callgsubr
        </CharString>
        <CharString name="Zacute">
          193 callgsubr
          974.9900054931641 232 callgsubr
          -63.02000427246094 116 -106.99000549316406 65 90 callsubr
          rrcurveto
          -30 -1089 -95 callgsubr
        </CharString>
        <CharString name="Zcaron">
          92 135 callsubr
          233 callgsubr
          765.9900054931641 30 callsubr
          130 callgsubr
          63 -50 22 rlinecurve
          82 callsubr
          303 callsubr
          -69 -101 -168 198 rcurveline
          34 callsubr
          231 callsubr
          154.99000549316406 29 callsubr
          49 140 callgsubr
          179 -973 -95 callgsubr
        </CharString>
        <CharString name="Zdotaccent">
          193 callgsubr
          649.9900054931641 167 callsubr
          -17 callsubr
          89 39 92 rrcurveto
          169 129 callsubr
          299 callgsubr
          -37 callsubr
          -101 65 callsubr
          262 callsubr
          101.99000549316406 -47 callsubr
          187 callsubr
          -6 rrcurveto
          295 -916.9900054931641 -95 callgsubr
        </CharString>
        <CharString name="a">
          -31 callsubr
          1116 93 callsubr
          -107 callgsubr
        </CharString>
        <CharString name="aacute">
          -31 callsubr
          439.99000549316406 77 callsubr
          118 25 callgsubr
          676 -1003 -107 callgsubr
        </CharString>
        <CharString name="abreve">
          -31 callsubr
          602.9900054931641 199 callsubr
          -177 98 -32.99000549316406 256 callgsubr
          95.00999450683594 60 35 callgsubr
          12.990005493164062 165 callsubr
          -24 56 hhcurveto
          8 36 callsubr
          513 -881.0099945068359 -107 callgsubr
        </CharString>
        <CharString name="acircumflex">
          -31 callsubr
          82 callgsubr
          206 callgsubr
          62 175 callgsubr
          -231 154 callsubr
          178 callgsubr
          12 callgsubr
          161 callgsubr
          25 callsubr
          741.0099945068359 -846.9900054931641 -107 callgsubr
        </CharString>
        <CharString name="acute">
          253 callsubr
          64 callsubr
          -43 62 -23.979995727539062 66 rrcurveto
          endchar
        </CharString>
        <CharString name="acute.cap">
          -424 1624.1499938964844 395.8300018310547 298 callsubr
          567.9900054931641 vstem
          -66 callsubr
          69 callsubr
          -75 callsubr
          56 -9.020004272460938 64 rrcurveto
          endchar
        </CharString>
        <CharString name="adieresis">
          -31 callsubr
          185 1391.979995727539 rmoveto
          57 261 callsubr
          152 -48 -169 36 hvcurveto
          -39 -92 -81 -89 -83 -36 -97 104 callgsubr
          57 142 45 callgsubr
          46 31 101 rrcurveto
          122 152.99000549316406 181 callgsubr
          463.02000427246094 -992.9900054931641 -107 callgsubr
        </CharString>
        <CharString name="ae">
          417 -20 304 878.0299987792969 166 callgsubr
          240.85000610351562 330.1499938964844 hintmask 00000000
          hintmask 11110000
          1026.990005493164 284 -89 callsubr
        </CharString>
        <CharString name="aeacute">
          417 -20 43 -43 304 878.0299987792969 166 callgsubr
          240.85000610351562 330.1499938964844 hintmask 10111000
          559.9799957275391 1402 rmoveto
          27 callsubr
          -37 callgsubr
          -132 -68 callgsubr
          -113 -88 -77 -200.99000549316406 14 callgsubr
          hintmask 01111000
          467.00999450683594 -1118 -89 callsubr
        </CharString>
        <CharString name="agrave">
          -31 callsubr
          253.99000549316406 1445.990005493164 rmoveto
          1 113 95.99000549316406 -9 callsubr
          -200.99000549316406 -1 callgsubr
          -88 77 rrcurveto
          862 -1047 -107 callgsubr
        </CharString>
        <CharString name="amacron">
          283 callgsubr
          134 265 callsubr
          hstem
          65 callgsubr
          1155.990005493164 vstem
          311.99000549316406 1594 rmoveto
          -38 -65 308 callgsubr
          -98 29 callsubr
          192 callsubr
          804 -1195 -107 callgsubr
        </CharString>
        <CharString name="ampersand">
          328 -20 43 1123.009994506836 -15 callgsubr
          115.22000122070312 349.77000427246094 227.989990234375 32.1300048828125 vstem
          1362.979995727539 944.9900054931641 rmoveto
          -263 -70 -187.99000549316406 70 -17 callgsubr
          -39 160 callsubr
          -122 -51 callsubr
          -82 rlinecurve
          18 -150 40 76 callsubr
          143 callgsubr
          -151.99000549316406 -113.99000549316406 -10.020004272460938 -204 49 188 callsubr
          42 -5 52 0 83 callgsubr
          -8 callsubr
          -33 callgsubr
          33 33 rcurveline
          41 -23 51 -21 28 -5 81 -3 callgsubr
          71 200 -77 123 -34 -2 -62 callsubr
          -8.990005493164062 -32 -28 callgsubr
          -82 336 rcurveline
          62.02000427246094 48 106 -111 271 -110 87 -4 -11 callsubr
          -343 -31.009994506835938 rcurveline
          -62 32 -242 58 -41 callsubr
          -82 callgsubr
          -125.00999450683594 -26.990005493164062 -202 -181 -20.009994506835938 -109 78.00999450683594 -205 307 callgsubr
          -108 145.02000427246094 -194 -82 -36 -88 -68 -52 -60 -47 -86 -86 callsubr
          -192 43 -136 -37 callgsubr
          -73.99000549316406 302 -82.97999572753906 181 -10.020004272460938 156 20 175.97999572753906 99.97999572753906 202 callgsubr
          101.00999450683594 rrcurveto
          130.99000549316406 -7 130 -75 callsubr
          131 vhcurveto
          252 callgsubr
          12 62.02000427246094 -42 62 -34 64 -44 callsubr
          rlinecurve
          35 18 64 92 callgsubr
          137 vvcurveto
          57 -12 61 -35 -73 callgsubr
          vhcurveto
          endchar
        </CharString>
        <CharString name="aogonek">
          78 -21 callsubr
          -31 43 1127.0299987792969 166 callgsubr
          hintmask 10111000
          950.9900054931641 -183 rmoveto
          -14 13 37 70 78.00999450683594 131.99000549316406 47 75 rlinecurve
          -3 callgsubr
          49 32 59 -52 callsubr
          63 -84.99000549316406 121 rcurveline
          -173 -92 99 234 81 454.99000549316406 -14 callsubr
          64 rlinecurve
          84.00999450683594 -71 170 callgsubr
          -122 hhcurveto
          -77 118 callgsubr
          8 callgsubr
          -117.99000549316406 vhcurveto
          -60 103 -69 -43 callgsubr
          41 callgsubr
          -5 -201.99000549316406 -37 -124.00999450683594 -157 rrcurveto
          -43 callsubr
          -25.009994506835938 -7 127 callgsubr
          vvcurveto
          hintmask 11011000
          -54 -6 -91 -28.020004272460938 vvcurveto
          -52.99000549316406 81.99000549316406 -28.020004272460938 49 -35 vhcurveto
          39 -22 callsubr
          185 callsubr
          15.009994506835938 -7 rcurveline
          -14 139 callgsubr
          -47 callsubr
          -10.020004272460938 -53 callsubr
          rrcurveto
          hintmask 10111000
          -8.990005493164062 -89 34 -25.009994506835938 25 -26.990005493164062 36 -39 46 -31 43.99000549316406 -17 rrcurveto
          -77 -58 63 callgsubr
          -76 110 callsubr
          145 callsubr
          90 callgsubr
          116 35 callgsubr
          64 131 66.99000549316406 195 callsubr
          rlineto
          -281 875.9900054931641 rmoveto
          67 callsubr
          -73.00999450683594 -30 14 rcurveline
          62 callsubr
          16 117 122 vvcurveto
          -56 callsubr
          vlineto
          64 -15.020004272460938 66 -11 305 callsubr
          -63 callsubr
          1 44 -3 -40.02000427246094 vhcurveto
          endchar
        </CharString>
        <CharString name="approxequal">
          44 57 callsubr
          957 hstem
          -77 callsubr
          1090.990005493164 vstem
          142 callgsubr
          593.9799957275391 rmoveto
          182 152 rlineto
          -61 callsubr
          92 272 -100 75 hhcurveto
          152 166 216 -43 callgsubr
          216 callsubr
          -121 112 -175 -148.99000549316406 rlineto
          -58 callsubr
          -91 -260 68 callgsubr
          178 callgsubr
          hhcurveto
          -152 -174.99000549316406 -223 -118 -44 callsubr
          hvcurveto
          121 -111 rlineto
          5 -501.99000549316406 rmoveto
          182 152 rlineto
          -55 92 272.02000427246094 -100 162 callsubr
          -148.99000549316406 rlineto
          -58 callsubr
          -91 -259.99000549316406 119 164 callgsubr
        </CharString>
        <CharString name="aring">
          283 callgsubr
          24.989990234375 182 115 196 hstemhm
          302.97999572753906 216 158 218 hintmask 00000000
          hintmask 11111100
          669 1235.990005493164 224 callgsubr
          188 callgsubr
          -108.02000427246094 93 -170 -28 -30 -2 -5 171 callsubr
          vhcurveto
          99 callsubr
          -16 -136 188 callsubr
          -145 vvcurveto
          -151 107 -94 172 -18 callgsubr
          95 callgsubr
          -3 -83 callsubr
          vhcurveto
          -6 -19 -21 -3 -20.990005493164062 hhcurveto
          -28.020004272460938 -29 6 12 -22 55 callgsubr
          19.990005493164062 -86 callsubr
          45 callgsubr
          hhcurveto
          536 -1125.990005493164 rmoveto
          -173.02000427246094 -92 99 234 81 454.99000549316406 -7.9900054931640625 64 rlinecurve
          84.00999450683594 -71 170 callgsubr
          -122.02000427246094 hhcurveto
          -76.99000549316406 118 callgsubr
          65 callsubr
          5 callsubr
          6 -96.00999450683594 2 -117.99000549316406 vhcurveto
          hintmask 11011100
          -60 103 -78.99000549316406 -43 callgsubr
          -107.00999450683594 74.02000427246094 -38.99000549316406 -5 -200.99000549316406 -37 -122.02000427246094 -157 rrcurveto
          -17.990005493164062 -25.009994506835938 -7 -83 callsubr
          -16.020004272460938 vvcurveto
          -12.990005493164062 11 callsubr
          48.99000549316406 -157 24 -260 3 -158 rrcurveto
          -68 callgsubr
          -54 -4 -91 -28.020004272460938 vvcurveto
          1 -52.99000549316406 83 -28.020004272460938 48.99000549316406 -35 40 -22 callsubr
          -62 callgsubr
          15.990005493164062 93.99000549316406 82 111 268.97999572753906 55 141 14.990005493164062 -7 rcurveline
          -83 callsubr
          -46 callsubr
          -10.020004272460938 -47 callsubr
          42 callsubr
          -8.990005493164062 -89 34 -25.009994506835938 25 -26.990005493164062 -66 callsubr
          -59 78.00999450683594 -41.97999572753906 61.99000549316406 1 116 -86 callsubr
          100 136.99000549316406 69 160 rrcurveto
          hintmask 11111100
          -84.99000549316406 121 rlineto
          -655.0200042724609 -61 rmoveto
          -30 14 24 121 -72 callsubr
          117 -3 122 rlinecurve
          -0.9900054931640625 -56 callsubr
          64 -15.020004272460938 70 -11 126 callgsubr
          rlinecurve
          -63 callsubr
          1 44 -3 -40.02000427246094 vhcurveto
          -33 -70 -109 12 callsubr
          153 callgsubr
          endchar
        </CharString>
        <CharString name="asciicircum">
          93 331.97999572753906 1116.6300048828125 hstem
          61.99000549316406 1081.990005493164 vstem
          575 1017 rmoveto
          367 -685.0200042724609 74 -27 callgsubr
          105 74 23 55 rlinecurve
          -362 974.9900054931641 -86 15.009994506835938 -206 -30 -47 -41 rlinecurve
          -57 -92 -285 -714.0200042724609 -39 -123 -77 callsubr
          100 callgsubr
          -37 callgsubr
          -67.02000427246094 -64 callsubr
          -7 307.02000427246094 685.0200042724609 rcurveline
          endchar
        </CharString>
        <CharString name="asciitilde">
          44 373.97999572753906 455 hstem
          -82 callsubr
          1085.990005493164 vstem
          157.97999572753906 377 rmoveto
          182 131.99000549316406 rlineto
          -55 92 272.02000427246094 -80 162 callsubr
          -128.99000549316406 rlineto
          -58 callsubr
          -91 -259.99000549316406 99 164 callgsubr
        </CharString>
        <CharString name="asterisk">
          -35 1577.0199890136719 -15 callgsubr
          -82 callsubr
          1007 vstem
          519.9900054931641 965 rmoveto
          8 -2 41 -127 55.99000549316406 -135 53 -89 rlinecurve
          121 15.020004272460938 104 59 61 -6 callsubr
          -308 244 rcurveline
          -80 callgsubr
          6 -1 -1 3 5.0200042724609375 rrcurveto
          -8 57 83 -11 72.99000549316406 hhcurveto
          45.02000427246094 57 4 11 48.99000549316406 hvcurveto
          13 38.02000427246094 6 42 238 callgsubr
          vvcurveto
          86.02000427246094 -4 callgsubr
          83 callgsubr
          -51.02000427246094 48 vhcurveto
          -316.99000549316406 -224.99000549316406 -5 4 -1 -80 callgsubr
          -6 4.0099945068359375 rlinecurve
          138 455.99000549316406 rlineto
          22.020004272460938 -62 callsubr
          -69 -82 callgsubr
          -44 hhcurveto
          63 callgsubr
          -74.02000427246094 -30 -24 callsubr
          -53 hvcurveto
          6 -87 250 callsubr
          -219.02000427246094 143 callgsubr
          -94 -5 -76 callgsubr
          -48 callsubr
          -2 -4 -76 callgsubr
          -275 240.99000549316406 rcurveline
          -10 callsubr
          203 callsubr
          -57 -138.02000427246094 -41 callgsubr
          66 callgsubr
          rrcurveto
          -31 98 130 -12 111 hhcurveto
          48.99000549316406 1 2 -11 -113.99000549316406 -65 -105 -83.99000549316406 -89 158 callsubr
          rlinecurve
          -81 47 239 callsubr
          -93 116 hhcurveto
          135 369.00999450683594 rlineto
          endchar
        </CharString>
        <CharString name="at">
          588 -235.22999572753906 290.2200012207031 974 352.99000549316406 hstemhm
          128.97999572753906 359.00999450683594 254.49000549316406 180.50999450683594 -82 callgsubr
          45 callgsubr
          331.00001525878906 289.99000549316406 hintmask 11110100
          1628 -105 rmoveto
          24 100 -52 143.99000549316406 -49 93.99000549316406 rrcurveto
          hintmask 11101100
          -216 -156 173 callgsubr
          -75 callsubr
          -69.02000427246094 -1 -51 -1 -63 34 -45 48 -20.009994506835938 22 -28 -62 callgsubr
          -70 callgsubr
          72 -14 callgsubr
          81.99000549316406 -27 callgsubr
          69.02000427246094 12 72.99000549316406 65 callsubr
          5 rcurveline
          -62 callsubr
          -114 -83 -224 -77 -65 -16 -83 callsubr
          -83 callsubr
          -5 -15.009994506835938 -1 -29 -2 -29 19 -74 callsubr
          23 -40.02000427246094 28 -48 callgsubr
          24 -1 42 rrcurveto
          23 4 74 -0.9900054931640625 43 vhcurveto
          -3 128 -19 211 -39 128 rrcurveto
          -7 21 -76 callgsubr
          12 11 vvcurveto
          13 5 11 14.990005493164062 21 vhcurveto
          hintmask 11110100
          -37 callgsubr
          129 110 callgsubr
          27 31 5.0200042724609375 87 -60 63 -97 49 -83 rrcurveto
          -1 185 callgsubr
          77 -6 callgsubr
          vvcurveto
          11 17 57 12 61.99000549316406 hhcurveto
          99 68.00999450683594 -30 92 callsubr
          58 hvcurveto
          6 -52 -66 -368.99000549316406 -80 -189 268 -4 rcurveline
          75 111 49 89 -58 callsubr
          161 rrcurveto
          425 12 -347 279 -346.00999450683594 hhcurveto
          -246 -274 -63 callsubr
          -122.99000549316406 -117.99000549316406 hvcurveto
          -63 -113 -60 -292 -3 -208 -76 callgsubr
          -208 87 -293.00999450683594 117 -136.99000549316406 333 -234 728.9900054931641 53 236.02000427246094 152 rrcurveto
          -916.0099945068359 453 rmoveto
          36 -20.009994506835938 -58 callgsubr
          66 100 192 29 64 rlinecurve
          1 -73 callgsubr
          -203 43 1 -105 -86 callsubr
          -98 -11.990005493164062 -98 81 callsubr
          -105 rlinecurve
          endchar
        </CharString>
        <CharString name="atilde">
          -31 callsubr
          430.97999572753906 174 callsubr
          135 13 callsubr
          237 callsubr
          -198.99000549316406 -141.99000549316406 224 callsubr
          -69.02000427246094 hvcurveto
          685.0200042724609 -997 -107 callgsubr
        </CharString>
        <CharString name="b">
          133 callsubr
          745.9799957275391 1181.979995727539 -71 callsubr
        </CharString>
        <CharString name="backslash">
          -328 1604.990005493164 64.28999328613281 hstem
          46.97999572753906 618 vstem
          407.97999572753906 -239 rmoveto
          -4 callsubr
          -76 callgsubr
          -64 callsubr
          23 76 53 -272 1825.979995727539 rcurveline
          -74 -6 callgsubr
          -194 -32 -78 -24 callsubr
          361 -1844 rcurveline
          endchar
        </CharString>
        <CharString name="bar">
          -467 1795.990005493164 52.75999450683594 hstem
          170.99000549316406 304 vstem
          470 -288.99000549316406 rmoveto
          29 callsubr
          2126.990005493164 -89 -50 callgsubr
          172 callgsubr
          -23 -65 -45 rlinecurve
          58 -2089 88 171 callsubr
          84.00999450683594 -80 callgsubr
          98 57 callgsubr
          rlinecurve
          endchar
        </CharString>
        <CharString name="braceleft">
          -264 -290.77000427246094 58.779998779296875 1770.4800109863281 264.49000549316406 hstem
          93.69000244140625 547.2799987792969 vstem
          640 959 rmoveto
          1 0.9799957275390625 617.9799957275391 vlineto
          131 callsubr
          -83 callgsubr
          64 -41 callgsubr
          94 callgsubr
          13 23 88 6 291 callsubr
          -4 88 rrcurveto
          -132 111 callgsubr
          -67 callgsubr
          32 -129.99000549316406 hvcurveto
          -52 -10.020004272460938 -103.02000427246094 -70.99000549316406 -35 -71 83 -758 rcurveline
          -48 -58 -62 callsubr
          35 -47 36 -18 13 rlinecurve
          173 callgsubr
          -54 81 callsubr
          -217 80 -115 68.00999450683594 -22 62 7 56 28 46.02000427246094 -19 callsubr
          rcurveline
          -55 -778.9700012207031 141 -52 110 -20.009994506835938 170 22 rlinecurve
          -58 callsubr
          186 -179 67.02000427246094 -66 callsubr
          601.9799957275391 -21 59 -72 65 -87.99000549316406 67.99000549316406 rlinecurve
          15 vlineto
          57 49 53 47 59 83 rrcurveto
          endchar
        </CharString>
        <CharString name="braceright">
          -264 1788.979995727539 58.80999755859375 hstem
          223.99000549316406 541.2700042724609 vstem
          218.99000549316406 596.9900054931641 rmoveto
          -1 hlineto
          45 -645 -57 57 callgsubr
          -58 10 -65 -6 rlinecurve
          -23 -88 -6 -53 4.0099945068359375 -91 291 -47 rcurveline
          52 10 103 71 35 71 -61 756.9799957275391 rcurveline
          48 59 109 -83.99000549316406 143 -55 callsubr
          21 217 -80 115 rlinecurve
          -69 22.020004272460938 -61 -7 149 callgsubr
          -28 -46 45 rcurveline
          77 779 -141 52 -188 -62 callgsubr
          -170 -7 callsubr
          rlinecurve
          -83 callgsubr
          -186 202 -48 callgsubr
          -10 -614.0099945068359 24 -52 57 -61 callgsubr
          88 92 callsubr
          rlinecurve
          -51 callsubr
          vlineto
          -57 -49 92 callsubr
          -41 callsubr
          -62 callsubr
          -69 rrcurveto
          -1 vlineto
          endchar
        </CharString>
        <CharString name="bracketleft">
          -406 -291 2140 hstem
          177.99000549316406 294.99000549316406 vstem
          461.99000549316406 -28 rmoveto
          22 1605.979995727539 62.02000427246094 -29 49.99000549316406 -11 62 6 rlinecurve
          23 88 6 291 callsubr
          -4 88 -383 46 rcurveline
          -151 -125.00999450683594 58 -1968.990005493164 394 -46 38 196 -177 -33 callgsubr
          rlineto
          endchar
        </CharString>
        <CharString name="bracketright">
          -406 -292 2141 hstem
          -25 callsubr
          474.5 vstem
          179 1565 rmoveto
          72.99000549316406 -1616.990005493164 -62 29 -72 11 -62 -6 rlinecurve
          -23 -88 -6 -52 4 -88 322 -46 rcurveline
          151 52 callgsubr
          -80 callgsubr
          1968.979995727539 -447 47 -24 callsubr
          -216 49.99000549316406 -38 70 -43 callsubr
          48 -11 rlinecurve
          endchar
        </CharString>
        <CharString name="breve">
          -311 1280 424.97999572753906 hstem
          -25 callsubr
          752 vstem
          403.99000549316406 127 callsubr
          -15 callsubr
          103.02000427246094 -24 55.99000549316406 hhcurveto
          -70 callgsubr
          36 callsubr
          endchar
        </CharString>
        <CharString name="breve.cap">
          -311 1578.0199890136719 -15 callgsubr
          -25 callsubr
          752 vstem
          403.99000549316406 112 callsubr
          28 callsubr
          157 61 99 -1 callgsubr
          60 35 callgsubr
          252 callgsubr
          165 callsubr
          1 -77 callsubr
          hhcurveto
          43 callgsubr
          -1 callgsubr
          186 callgsubr
          endchar
        </CharString>
        <CharString name="brokenbar">
          -480 498.99000549316406 25 1272 52.75999450683594 hstemhm
          155.97999572753906 321.52000427246094 -288.50999450683594 282.99000549316406 hintmask 11100000
          278 callgsubr
          797.9799957275391 rmoveto
          5 1040.020004272461 -89 -50 callgsubr
          172 callgsubr
          -23 -65 -45 rlinecurve
          28 -1005 101.00999450683594 81 callsubr
          101 1 103 125 callgsubr
          hintmask 11010000
          -297 -285 rmoveto
          22 -805.9900054931641 88 171 callsubr
          84.00999450683594 -80 callgsubr
          98 57 callgsubr
          rlinecurve
          3.9900054931640625 787.9900054931641 -95 28 -98 6 -103 -20.009994506835938 rlinecurve
          endchar
        </CharString>
        <CharString name="bullet">
          -338 331.97999572753906 593.0200042724609 hstem
          59.99000549316406 619 vstem
          326.97999572753906 925 rmoveto
          149.02000427246094 -42 123 -108.02000427246094 80 -111 -37 -152.99000549316406 -200.99000549316406 -144.02000427246094 -105 -35 -121 53 100 callsubr
          84.00999450683594 -46 130 19 57 188.99000549316406 230 59 39 rrcurveto
          endchar
        </CharString>
        <CharString name="c">
          18 callgsubr
          -73 callgsubr
          868.9900054931641 -97 callsubr
        </CharString>
        <CharString name="cacute">
          18 callgsubr
          307 2 callsubr
          72.00999450683594 170 callsubr
          118 -41 -57 callsubr
          152 callgsubr
          -135 -27.009994506835938 -32 51 callgsubr
          -246 -533.0099945068359 -97 callsubr
        </CharString>
        <CharString name="caron">
          -207 1269.509994506836 441.4600067138672 hstem
          98.97000122070312 746 vstem
          558.9799957275391 19 callsubr
          endchar
        </CharString>
        <CharString name="caron.cap">
          -207 245 callsubr
          98 739.9799957275391 hintmask 00000000
          hintmask 11000000
          578.9900054931641 66 callsubr
          225 55 callsubr
          endchar
        </CharString>
        <CharString name="caronvertical">
          -700 1013.9799957275391 598.9900054931641 hstem
          291 callgsubr
          342.99000549316406 vstem
          227.97999572753906 1612.979995727539 rmoveto
          78.00999450683594 66 -24 callsubr
          -54 -68 callgsubr
          hvcurveto
          -40 -130 -32 callsubr
          -197 -99 -169 -154 28 rcurveline
          19 514 rlineto
          30 60 -25 callsubr
          -52 callsubr
          88 hhcurveto
          endchar
        </CharString>
        <CharString name="ccaron">
          18 callgsubr
          566.9900054931641 -56 callgsubr
          108 -2 49 -82 callgsubr
          rrcurveto
          -506 -406 -97 callsubr
        </CharString>
        <CharString name="ccedilla">
          -214 -408 239 149 43 1140.0299987792969 -15 callgsubr
          265 callgsubr
          237 callgsubr
          265 callgsubr
          284 rmoveto
          -43 callsubr
          16 -82 callsubr
          175 5 269.99000549316406 -16 144.02000427246094 rlinecurve
          62 -63 callsubr
          70 -112 -34 callgsubr
          -61 callgsubr
          51 14.990005493164062 165 180 -35 230.99000549316406 -186 48 rcurveline
          23 160 callsubr
          66 callgsubr
          74.02000427246094 -60 hhcurveto
          -63 -122 -61 -31 -52 hvcurveto
          -52 -37 callsubr
          -127 -94 -57 vvcurveto
          -13 7 -20.009994506835938 -82 callgsubr
          -28 vhcurveto
          39 -113.99000549316406 64 callgsubr
          -251 -185 vvcurveto
          -104 -38.02000427246094 -16.020004272460938 84.00999450683594 -71.99000549316406 vhcurveto
          -7 callsubr
          27 144 -124.99000549316406 88 hhcurveto
          2 hlineto
          -58 callgsubr
          -149 rlineto
          203 callsubr
          -20 callsubr
          23 16 -68 hvcurveto
          -13 -41.99000549316406 -13 -71 -8 callsubr
          -53 -25 callsubr
          -40 -56 callsubr
          -71 105 -1 rrcurveto
          11 10 1 1 -27 callgsubr
          hvcurveto
          172 callsubr
          42 130 callsubr
          103 30 116 -129 201.99000549316406 rcurveline
          112.99000549316406 72.99000549316406 105 107 29 53 106 callgsubr
          rcurveline
          -112 -61 callgsubr
          -158 -79.02000427246094 -48 -36 callgsubr
          rrcurveto
          endchar
        </CharString>
        <CharString name="ccircumflex">
          18 callgsubr
          241.99000549316406 206 callsubr
          68 -47 90 callgsubr
          -53 67.02000427246094 17 callsubr
          -89 25 callsubr
          -181 -377 -97 callsubr
        </CharString>
        <CharString name="cdotaccent">
          18 callgsubr
          253.99000549316406 1391.979995727539 74 callsubr
          213 callsubr
          208 callsubr
          6 -102 -75 callgsubr
          -193 -523 -97 callsubr
        </CharString>
        <CharString name="cedilla">
          -563 -408 239 -239 542.9799957275391 hstemhm
          7.8800048828125 536.1000061035156 hintmask 01100000
          366 133.97999572753906 rmoveto
          -220.02000427246094 1 rlineto
          hintmask 10100000
          137 -303.97999572753906 rlineto
          -65 66 callgsubr
          23 16 92 callsubr
          hvcurveto
          -12.990005493164062 -41.99000549316406 -13 -71 4 -53 31 -40 -17 callsubr
          -71 105 -1 rrcurveto
          11 10.009994506835938 1 1 9 hvcurveto
          124 42 109 103 30 116 rrcurveto
          hintmask 01100000
          -177.99000549316406 278.97999572753906 rlineto
          endchar
        </CharString>
        <CharString name="cent">
          -154 -341.11000061035156 77.11000061035156 1424.0199890136719 -15 callgsubr
          115 324.99000549316406 vstem
          459 284 rmoveto
          -19 16 37 175 -25 280 -16 144 rlinecurve
          62 -63 callsubr
          130 -19 callgsubr
          101.99000549316406 -60 51 15.020004272460938 165 180 -35 231 -206 48 rcurveline
          -11 5 -16 7 129 callgsubr
          7 84.00999450683594 361.99000549316406 rcurveline
          25 -44 callsubr
          -65 11 100 callgsubr
          hhcurveto
          109 callsubr
          -58 -27 -70 -62 callsubr
          hvcurveto
          -50 callgsubr
          -246 -66 -13 -98 -24 callsubr
          -45 -27.020004272460938 rlinecurve
          -52 -37 callsubr
          -127 -94 -57 vvcurveto
          -13 7 -20.009994506835938 -82 callgsubr
          -28 vhcurveto
          39 -113.99000549316406 64 callgsubr
          -251 -185 vvcurveto
          -104 -38.02000427246094 -16.020004272460938 84.00999450683594 -71.99000549316406 vhcurveto
          16 -13 59 -48 64 -83 callgsubr
          -51 -292 rcurveline
          70 -81 159.99000549316406 -4 callgsubr
          -34 callgsubr
          71 -14 callsubr
          57 callsubr
          -11 309 callgsubr
          -21 96.97000122070312 151 62 179 153.99000549316406 -82 callsubr
          68.02000427246094 106 callgsubr
          rcurveline
          -112 -61 callgsubr
          -188 -79.02000427246094 -9 callgsubr
          -36 callgsubr
          rrcurveto
          endchar
        </CharString>
        <CharString name="circumflex">
          -207 1245.979995727539 460.61000061035156 hstem
          73.99000549316406 729.9799957275391 vstem
          215 206 callsubr
          68.02000427246094 -47 97 84 callsubr
          65 -29 rrcurveto
          endchar
        </CharString>
        <CharString name="circumflex.cap">
          -207 1608.990005493164 398 hstem
          98 710 vstem
          238.97999572753906 128 callgsubr
          85.02000427246094 -71 57 callsubr
          271 callgsubr
          -208.02000427246094 132 callgsubr
          -57 -92 -38 270 callgsubr
          -52 callsubr
          -49 49 -62 callsubr
          94 callgsubr
          -29 rrcurveto
          endchar
        </CharString>
        <CharString name="colon">
          -425 -33.99000549316406 1275.979995727539 hstem
          69.97999572753906 531 47 callsubr
          -767 vmoveto
          259 callgsubr
          -95 -37 callsubr
          -132 -173.02000427246094 -122.97999572753906 -46 callsubr
          14 callsubr
          16.020004272460938 286 callsubr
          endchar
        </CharString>
        <CharString name="comma">
          -465 -243.99000549316406 694.9799957275391 hstem
          -10.990005493164062 559.9799957275391 vstem
          -11 -176 rmoveto
          198.97999572753906 627 277.00999450683594 210 callgsubr
          -292.97999572753906 -240.99000549316406 -75 -41 -120.99000549316406 67.99000549316406 rcurveline
          endchar
        </CharString>
        <CharString name="copyright">
          317 175.97999572753906 243.99000549316406 902.0099945068359 242 hstemhm
          -43 callgsubr
          247.99000549316406 172 callgsubr
          239.35000610351562 280.25999450683594 191.3800048828125 hintmask 11101000
          1263.979995727539 1356.979995727539 rmoveto
          111 -93 -369.99000549316406 -37 callgsubr
          -96.00999450683594 hhcurveto
          -3 callsubr
          -413 -110 -94 142 callsubr
          hvcurveto
          -36 -46 1 -128 142 callsubr
          vvcurveto
          hintmask 11011000
          -193 28 -286.99000549316406 36 -229 vhcurveto
          16 -111 415.00999450683594 -105 140 -13 76 12 378 116 31 106 rrcurveto
          -3 callgsubr
          131 40 343 209.99000549316406 vvcurveto
          hintmask 11101000
          118 -5 90.00999450683594 -46 -66 callsubr
          vhcurveto
          -548 -304.97999572753906 rmoveto
          239 callgsubr
          -10.020004272460938 11 99 callgsubr
          -117.99000549316406 -28 -134 rlinecurve
          14.990005493164062 -12 40 16 128 64 90.00999450683594 48 rlinecurve
          81 -124 rlineto
          -69 -37 -197 -182 -128 hhcurveto
          hintmask 11011000
          -70.99000549316406 -117 -34 callgsubr
          17 -7 callsubr
          hvcurveto
          -48 callgsubr
          58 30 -67 callgsubr
          84.00999450683594 vvcurveto
          hintmask 11101000
          150 -17 113.00999450683594 -31.009994506835938 92 vhcurveto
          -8 23 -6 16 11 vvcurveto
          45.02000427246094 292 callsubr
          76.99000549316406 41 25 vhcurveto
          25 41.97999572753906 99 49.99000549316406 52 hhcurveto
          48 97 -61 callgsubr
          -19 41 hvcurveto
          188 callgsubr
          -39 29 -187 -134 -146 -42 -12 rlinecurve
          -76 46 -54 82 -48 65 rrcurveto
          endchar
        </CharString>
</ttFont>
